<svg xmlns="http://www.w3.org/2000/svg" xmlns:xlink="http://www.w3.org/1999/xlink" width="169" height="169" version="1.1" viewBox="0 0 169 169"><title>PEAX</title><desc>Created with Sketch.</desc><g id="Page-1" fill="none" fill-rule="evenodd" stroke="none" stroke-width="1"><g id="Kundenlogos-sw" transform="translate(0.000000, -183.000000)"><g id="PEAX" transform="translate(0.000000, 183.000000)"><rect id="Rectangle-Copy-8" width="169" height="169" x="0" y="0" style="mix-blend-mode:color"/><g id="PEAX_oClaim" fill-rule="nonzero" transform="translate(42.000000, 37.000000)"><path id="Shape" fill="#DCDBDB" d="M0.661538462,8.39135209 C0.661538462,8.39135209 -1.98461538,46.1787619 9.79076923,65.9973335 C20.1107692,83.4376765 43.1323077,94.8003242 43.1323077,94.8003242 C43.1323077,94.8003242 65.2276923,85.6837812 75.2830769,66.2615811 C88.2492308,41.2901809 84.9415385,8.25922828 84.9415385,8.25922828 C84.9415385,8.25922828 59.9353846,0.596047266 44.0584615,0.463923455 C19.4492308,0.331799644 0.661538462,8.39135209 0.661538462,8.39135209 Z"/><path id="Shape" fill="#000" d="M70.52,57.1450382 L70.52,51.8600857 L67.3446154,48.6891143 L70.52,45.5181428 L70.52,40.2331904 L66.2861538,40.2331904 L66.2861538,43.4041619 L64.1692308,45.5181428 L62.0523077,43.4041619 L62.0523077,40.2331904 L57.8184615,40.2331904 L57.8184615,45.5181428 L60.9938462,48.6891143 L57.8184615,51.8600857 L57.8184615,57.1450382 L62.0523077,57.1450382 L62.0523077,53.9740667 L64.1692308,51.8600857 L66.2861538,53.9740667 L66.2861538,57.1450382 L70.52,57.1450382 Z M51.4676923,50.8030953 L47.2338462,50.8030953 L47.2338462,46.5751333 L49.3507692,44.4611524 L51.4676923,46.5751333 L51.4676923,50.8030953 L51.4676923,50.8030953 Z M55.7015385,57.1450382 L55.7015385,44.3290285 L51.4676923,40.1010666 L51.4676923,39.0440761 L47.2338462,39.0440761 L47.2338462,40.1010666 L43,44.3290285 L43,57.1450382 L47.2338462,57.1450382 L47.2338462,55.0310572 L51.4676923,55.0310572 L51.4676923,57.1450382 L55.7015385,57.1450382 Z M41.5446154,57.1450382 L41.5446154,52.9170762 L33.0769231,52.9170762 L33.0769231,50.8030953 L37.3107692,50.8030953 L37.3107692,46.5751333 L33.0769231,46.5751333 L33.0769231,44.4611524 L41.5446154,44.4611524 L41.5446154,40.2331904 L28.7107692,40.2331904 L28.7107692,57.277162 L41.5446154,57.1450382 L41.5446154,57.1450382 Z M22.8892308,48.6891143 L18.6553846,48.6891143 L18.6553846,44.4611524 L22.8892308,44.4611524 L22.8892308,48.6891143 Z M27.1230769,50.8030953 L27.1230769,42.3471714 L25.0061538,40.2331904 L14.4215385,40.2331904 L14.4215385,57.277162 L18.6553846,57.277162 L18.6553846,53.0492 L25.0061538,53.0492 L27.1230769,50.8030953 Z"/><polygon id="Shape" fill="#000" points="56.231 34.948 59.274 30.852 58.083 28.474 53.188 34.948"/><polygon id="Shape" fill="#000" points="61.391 34.948 60.2 32.57 58.348 34.948"/><polygon id="Shape" fill="#000" points="50.938 34.948 57.157 26.757 55.966 24.378 48.028 34.948"/><polygon id="Shape" fill="#000" points="40.751 34.023 52.526 18.301 48.954 19.093 39.295 32.042"/><polygon id="Shape" fill="#000" points="45.382 34.948 54.775 22.264 53.585 19.886 42.338 34.948"/><polygon id="Shape" fill="#000" points="44.985 16.715 36.252 28.342 37.84 30.192 46.175 19.093"/><polygon id="Shape" fill="#000" points="42.735 12.355 24.212 37.062 27.123 37.062 28.711 34.948 28.711 34.948 43.926 14.733"/></g></g></g></g></svg>