<svg xmlns="http://www.w3.org/2000/svg" viewBox="0 0 24 24"><defs><style>.cls-1,.cls-2,.cls-3{fill:none;stroke:#fff;stroke-linecap:round;stroke-linejoin:round}.cls-2{stroke-width:.76077px}.cls-3{stroke-width:.57246px}</style></defs><title>Erfahrung</title><g id="Erfahrung2" stroke-width=".5"><g><path d="M21.40209,18.5H5.09791a2.5,2.5,0,0,0,0,5H21.40209" class="cls-1"/><line x1="20.723" x2="20.723" y1="18.5" y2="23.5" class="cls-1"/></g><g><path d="M3.83007,18.5H18.63425a2.5,2.5,0,0,0,0-5H3.83007" class="cls-1"/><line x1="4.509" x2="4.509" y1="18.5" y2="13.5" class="cls-1"/></g><circle cx="15.296" cy="10.58" r="2.89" class="cls-2"/><circle cx="7.534" cy="10.58" r="2.89" class="cls-2"/><path d="M10.424,10.57974a1.18694,1.18694,0,0,1,.98176-.72836,1.22856,1.22856,0,0,1,1.00064.72836" class="cls-2"/><rect width=".5" height="2" x="4.1" y="9.58" class="cls-3" rx=".25"/><rect width=".5" height="2" x="18.2" y="9.58" class="cls-3" rx=".25"/></g></svg>