<svg xmlns="http://www.w3.org/2000/svg" viewBox="0 0 1280 564"><defs><style>.cls-1{fill:#a7e4f2}.cls-2{fill:#002f47}.cls-3{fill:#81b4c4}.cls-4{fill:#a7ced1}.cls-5{fill:#c0e1e3}.cls-6{fill:#c2d64c}.cls-7{fill:none;stroke:#002f47;stroke-linecap:round;stroke-miterlimit:10;stroke-width:.75009px}.cls-8{fill:#b8c445}</style></defs><title>Angebot_Karten_Visualisierung</title><g id="bg"><rect width="1280" height="564" class="cls-1"/></g><g id="landschaft"><g><rect width="1280" height="218" y="346" class="cls-2"/><g><polygon points="1280 346.966 596.018 346.966 775.878 314.142 833.029 328.147 1033.248 291.323 1206.832 312.984 1280 287.575 1280 346.966" class="cls-3"/><polygon points="1256.575 297.795 1265.938 277 1275.301 297.795 1256.575 297.795" class="cls-4"/><polygon points="1249.892 302.196 1257.417 286.21 1264.941 302.196 1249.892 302.196" class="cls-5"/><polygon points="687.451 347 0 347 0 327.355 176.632 300.08 687.451 347" class="cls-3"/><g id="baume"><polygon points="92.198 303.205 85.127 321.673 99.268 321.673 92.198 303.205" class="cls-4"/></g><g><polygon points="489.926 319.006 484.222 333.905 495.63 333.905 489.926 319.006" class="cls-5"/><polygon points="481.944 316.695 473.482 338.798 490.407 338.798 481.944 316.695" class="cls-4"/></g><polygon points="334.914 298.92 326.103 321.933 343.726 321.933 334.914 298.92" class="cls-5"/><polygon points="1159.028 310.531 1153.324 325.429 1164.732 325.429 1159.028 310.531" class="cls-5"/><polygon points="1151.113 299.375 1142.65 321.478 1159.575 321.478 1151.113 299.375" class="cls-4"/><g><circle cx="782.685" cy="319.585" r="11.375" class="cls-6"/><g><line x1="782.58" x2="777.114" y1="320.38" y2="315.29" class="cls-7"/><line x1="789.307" x2="782.685" y1="317.126" y2="325.162" class="cls-7"/><line x1="782.685" x2="782.685" y1="347" y2="315.007" class="cls-7"/></g></g><g><circle cx="1253.916" cy="319.585" r="11.375" class="cls-8"/><g><line x1="1254.021" x2="1259.487" y1="320.38" y2="315.29" class="cls-7"/><line x1="1247.294" x2="1253.916" y1="317.126" y2="325.162" class="cls-7"/><line x1="1253.916" x2="1253.916" y1="347" y2="315.007" class="cls-7"/></g></g><g><circle cx="1240.937" cy="325.416" r="8.955" class="cls-6"/><g><line x1="1240.854" x2="1236.551" y1="326.042" y2="322.034" class="cls-7"/><line x1="1246.151" x2="1240.937" y1="323.48" y2="327.952" class="cls-7"/><line x1="1240.937" x2="1240.937" y1="347" y2="321.811" class="cls-7"/></g></g></g></g></g></svg>