<svg xmlns="http://www.w3.org/2000/svg" xmlns:xlink="http://www.w3.org/1999/xlink" width="124" height="124" version="1.1" viewBox="0 0 124 124"><title>icon einheitlich</title><desc>Created with Sketch.</desc><g id="Pages" fill="none" fill-rule="evenodd" stroke="none" stroke-width="1"><g id="Startseite-V2-Copy-5" transform="translate(-909.000000, -1300.000000)"><g id="Group-4" transform="translate(169.000000, 1105.000000)"><g id="Service-Automation" transform="translate(659.000000, 150.000000)"><g id="Group-Copy"><g id="icon-einheitlich" transform="translate(81.000000, 45.000000)"><path id="Fill-26-Copy" fill="#FFF" d="M62,0 C96.2416142,0 124,27.7583858 124,62 C124,96.2416142 96.2416142,124 62,124 C27.7583858,124 0,96.2416142 0,62 C0,27.7583858 27.7583858,0 62,0 Z"/><g id="Group" stroke="#002F47" stroke-linecap="round" stroke-linejoin="round" stroke-width="2" transform="translate(21.000000, 20.000000)"><polygon id="Stroke-17" points="33.249 56 25 70 33.249 84 49.748 84 58 70 49.748 56"/><polygon id="Stroke-17-Copy" points="33.249 28 25 42 33.249 56 49.748 56 58 42 49.748 28"/><polygon id="Stroke-17-Copy-2" points="33.249 0 25 14 33.249 28 49.748 28 58 14 49.748 0"/><polygon id="Stroke-17-Copy-3" points="8.249 14 0 28 8.249 42 24.748 42 33 28 24.748 14"/><polygon id="Stroke-17-Copy-5" points="8.249 42 0 56 8.249 70 24.748 70 33 56 24.748 42"/><polygon id="Stroke-17-Copy-4" points="58.249 14 50 28 58.249 42 74.748 42 83 28 74.748 14"/><polygon id="Stroke-17-Copy-6" points="58.249 42 50 56 58.249 70 74.748 70 83 56 74.748 42"/></g></g></g></g></g></g></g></svg>