<svg xmlns="http://www.w3.org/2000/svg" xmlns:xlink="http://www.w3.org/1999/xlink" width="124" height="124" version="1.1" viewBox="0 0 124 124"><title>icon sicherheit</title><desc>Created with Sketch.</desc><g id="Pages" fill="none" fill-rule="evenodd" stroke="none" stroke-width="1"><g id="Startseite-V2-Copy-5" transform="translate(-577.000000, -1860.000000)"><g id="Group-4" transform="translate(169.000000, 1105.000000)"><g id="Security" transform="translate(331.000000, 702.000000)"><g id="icon-sicherheit" transform="translate(77.000000, 53.000000)"><path id="Fill-26" fill="#FFF" d="M62,0 C96.2416142,0 124,27.7583858 124,62 C124,96.2416142 96.2416142,124 62,124 C27.7583858,124 0,96.2416142 0,62 C0,27.7583858 27.7583858,0 62,0 Z"/><polyline id="Stroke-1" stroke="#002F47" stroke-width="2" points="79.52 46.793 55.762 68.967 47.842 61.047"/><path id="Stroke-2" stroke="#FFF" stroke-width="2" d="M32.0002,34.2034 L62.0942,25.0454 L92.1862,34.2034 L92.1862,51.2134 C92.1862,72.1294 80.5962,91.3214 62.0942,101.0614 C43.5822,91.3214 32.0002,72.1294 32.0002,51.2134 L32.0002,34.2034 Z"/></g></g></g></g></g></svg>