<svg xmlns="http://www.w3.org/2000/svg" xmlns:xlink="http://www.w3.org/1999/xlink" viewBox="0 0 1280 542"><defs><style>.cls-1,.cls-11,.cls-18,.cls-27,.cls-28,.cls-29,.cls-32,.cls-33,.cls-34,.cls-39,.cls-40,.cls-41,.cls-42,.cls-43,.cls-44,.cls-45,.cls-46,.cls-47,.cls-49,.cls-50,.cls-51,.cls-52,.cls-53,.cls-54,.cls-55,.cls-56,.cls-57,.cls-59,.cls-60,.cls-61,.cls-62,.cls-63,.cls-64,.cls-65,.cls-66,.cls-67,.cls-68,.cls-69,.cls-70,.cls-71,.cls-72,.cls-73,.cls-74,.cls-75,.cls-76,.cls-77,.cls-78,.cls-79,.cls-80,.cls-81{fill:none}.cls-2{isolation:isolate}.cls-3{fill:#a7e4f2}.cls-4{fill:#002f47}.cls-5{fill:url(#Unbenannter_Verlauf_6)}.cls-6{fill:#81d4dc}.cls-7,.cls-8,.cls-83{fill:#1d1d1b}.cls-7{opacity:.05}.cls-23,.cls-8{opacity:.1}.cls-9{fill:#7dadba}.cls-10{fill:#91eaf3}.cls-11{stroke:#000;stroke-linejoin:round;stroke-width:.63px}.cls-11,.cls-28,.cls-32,.cls-33,.cls-40,.cls-42,.cls-43,.cls-46,.cls-49,.cls-51,.cls-53,.cls-55,.cls-56,.cls-60,.cls-64,.cls-65,.cls-69,.cls-72,.cls-73,.cls-77,.cls-79,.cls-81{stroke-linecap:round}.cls-12{fill:#c2d64c}.cls-13,.cls-90,.cls-99{fill:#fff}.cls-13{opacity:.4}.cls-14{fill:#ffd301}.cls-15{fill:#15b0bf}.cls-16{fill:#ff931e}.cls-17,.cls-99{opacity:.3}.cls-18{stroke:#4d4d4d}.cls-18,.cls-27,.cls-28,.cls-29,.cls-32,.cls-33,.cls-34,.cls-39,.cls-40,.cls-41,.cls-42,.cls-43,.cls-44,.cls-45,.cls-46,.cls-47,.cls-49,.cls-50,.cls-51,.cls-52,.cls-53,.cls-54,.cls-55,.cls-56,.cls-57,.cls-58,.cls-59,.cls-60,.cls-61,.cls-62,.cls-63,.cls-64,.cls-65,.cls-66,.cls-67,.cls-68,.cls-69,.cls-70,.cls-71,.cls-72,.cls-73,.cls-74,.cls-75,.cls-76,.cls-77,.cls-78,.cls-79,.cls-80,.cls-81{stroke-miterlimit:10}.cls-19{fill:#4d4d4d}.cls-20{fill:#2c5871}.cls-21{fill:#367089}.cls-22{opacity:.5}.cls-24{fill:#6aa0aa}.cls-25{fill:#ffd800}.cls-26{fill:#402313}.cls-27,.cls-33,.cls-34,.cls-43,.cls-44,.cls-50,.cls-51,.cls-52,.cls-56,.cls-57,.cls-58,.cls-64,.cls-67,.cls-72,.cls-75,.cls-80,.cls-81{stroke:#ef9f6a}.cls-27,.cls-28,.cls-29{stroke-width:7.2px}.cls-28,.cls-29,.cls-40,.cls-41,.cls-46,.cls-47,.cls-53,.cls-54,.cls-60,.cls-61,.cls-69,.cls-70,.cls-77,.cls-78{stroke:#1d1d1b}.cls-30{fill:#de9462}.cls-31,.cls-36{opacity:.2}.cls-32{stroke:#c2d64c}.cls-32,.cls-33,.cls-34{stroke-width:5.14px}.cls-35,.cls-58{fill:#ef9f6a}.cls-36,.cls-86{fill:#232323}.cls-37{fill:#423228}.cls-38{fill:#7a5022}.cls-39,.cls-45,.cls-76{stroke:#666}.cls-39,.cls-40,.cls-41{stroke-width:3.53px}.cls-42,.cls-55,.cls-62,.cls-71{stroke:#2c5871}.cls-42,.cls-43,.cls-44{stroke-width:2.52px}.cls-45,.cls-46,.cls-47{stroke-width:3.95px}.cls-48{fill:#736357}.cls-49,.cls-79{stroke:#b3b3b3}.cls-49,.cls-50,.cls-51{stroke-width:2.82px}.cls-52,.cls-53,.cls-54{stroke-width:2.85px}.cls-55,.cls-56,.cls-57,.cls-58{stroke-width:2.04px}.cls-59{stroke:#de9462}.cls-59,.cls-60,.cls-61,.cls-62,.cls-63{stroke-width:2.82px}.cls-63{stroke:#efa47b}.cls-64,.cls-65,.cls-66,.cls-67{stroke-width:2.01px}.cls-65,.cls-66,.cls-73,.cls-74{stroke:#fff}.cls-68{stroke:#234959}.cls-68,.cls-69,.cls-70,.cls-71{stroke-width:3.37px}.cls-72,.cls-73,.cls-74,.cls-75{stroke-width:2.41px}.cls-76,.cls-77,.cls-78{stroke-width:7.92px}.cls-79,.cls-80,.cls-81{stroke-width:5.66px}.cls-82{fill:#666}.cls-84{fill:gray}.cls-85{fill:#999}.cls-87{fill:#1a3842}.cls-88{fill:#244959}.cls-89{mix-blend-mode:screen}.cls-91{fill:#0c2f46}.cls-92{fill:#f2f2f2}.cls-93{fill:#ccc}.cls-94{fill:#898989}.cls-95{fill:#b3b3b3}.cls-96{fill:#db242f}.cls-97{fill:#251f21}.cls-98{clip-path:url(#clip-path)}.cls-99{fill-rule:evenodd}.cls-100{clip-path:url(#clip-path-2)}</style><linearGradient id="Unbenannter_Verlauf_6" x1="831.23" x2="831.23" y1="252.04" y2="345.33" gradientUnits="userSpaceOnUse"><stop offset="0" stop-color="#fff" stop-opacity=".2"/><stop offset="1" stop-color="#fff" stop-opacity="0"/></linearGradient><clipPath id="clip-path"><rect width="257.95" height="192.02" x=".21" y="66.96" class="cls-1"/></clipPath><clipPath id="clip-path-2"><rect width="673.47" height="316.48" x="606.53" y="1.39" class="cls-1"/></clipPath></defs><title>landscape</title><g class="cls-2"><g id="bg"><rect width="1280" height="541.53" class="cls-3"/><rect width="1280" height="190.57" y="351.44" class="cls-4"/></g><g id="ad_ons" data-name="ad ons"><rect width="120.35" height="70.94" x="771.05" y="264.55" class="cls-5"/><rect width="120.35" height="59.8" x="771.05" y="204.75" class="cls-6"/><rect width="113.27" height="52.71" x="774.6" y="208.29" class="cls-7"/><path d="M886.45,209.71v49.88H776V209.71H886.45m1.42-1.42H774.6V261H887.86V208.29Z" class="cls-8"/><path d="M831.56,212.45a1.88,1.88,0,0,0-1.88,1.88v41.26a1.88,1.88,0,1,0,3.77,0V214.33a1.88,1.88,0,0,0-1.88-1.88Z" class="cls-9"/><path d="M822.18,212.45a1.88,1.88,0,0,0-1.88,1.88v41.26a1.88,1.88,0,1,0,3.77,0V214.33a1.88,1.88,0,0,0-1.88-1.88Z" class="cls-9"/><path d="M812.83,212.45a1.88,1.88,0,0,0-1.88,1.88v41.26a1.88,1.88,0,1,0,3.77,0V214.33a1.93,1.93,0,0,0-1.88-1.88Z" class="cls-9"/><path d="M803.45,212.45a1.88,1.88,0,0,0-1.88,1.88v41.26a1.88,1.88,0,1,0,3.77,0V214.33a1.9,1.9,0,0,0-1.88-1.88Z" class="cls-9"/><path d="M869.09,212.45a1.88,1.88,0,0,0-1.88,1.88v41.26a1.88,1.88,0,1,0,3.77,0V214.33a1.93,1.93,0,0,0-1.88-1.88Z" class="cls-9"/><path d="M878.44,212.45a1.88,1.88,0,0,0-1.88,1.88v41.26a1.88,1.88,0,1,0,3.77,0V214.33a1.88,1.88,0,0,0-1.88-1.88Z" class="cls-9"/><path d="M794.06,212.45a1.88,1.88,0,0,0-1.88,1.88v41.26a1.88,1.88,0,1,0,3.77,0V214.33a1.9,1.9,0,0,0-1.88-1.88Z" class="cls-9"/><path d="M784.68,212.45a1.88,1.88,0,0,0-1.88,1.88v41.26a1.88,1.88,0,1,0,3.77,0V214.33a1.88,1.88,0,0,0-1.88-1.88Z" class="cls-9"/><path d="M859.71,212.45a1.88,1.88,0,0,0-1.88,1.88v41.26a1.88,1.88,0,1,0,3.77,0V214.33a1.9,1.9,0,0,0-1.88-1.88Z" class="cls-9"/><path d="M850.33,212.45a1.88,1.88,0,0,0-1.88,1.88v41.26a1.88,1.88,0,1,0,3.77,0V214.33a1.9,1.9,0,0,0-1.88-1.88Z" class="cls-9"/><path d="M840.94,212.45a1.88,1.88,0,0,0-1.88,1.88v41.26a1.88,1.88,0,0,0,1.88,1.88,1.86,1.86,0,0,0,1.88-1.88V214.33a1.9,1.9,0,0,0-1.88-1.88Z" class="cls-9"/><path d="M831.23,212.12a1.88,1.88,0,0,0-1.88,1.88v41.26a1.88,1.88,0,1,0,3.77,0V214a1.88,1.88,0,0,0-1.88-1.88Z" class="cls-10"/><path d="M821.85,212.12A1.88,1.88,0,0,0,820,214v41.26a1.88,1.88,0,1,0,3.77,0V214a1.88,1.88,0,0,0-1.88-1.88Z" class="cls-10"/><path d="M812.5,212.12a1.88,1.88,0,0,0-1.88,1.88v41.26a1.88,1.88,0,1,0,3.77,0V214a1.93,1.93,0,0,0-1.88-1.88Z" class="cls-10"/><path d="M803.12,212.12a1.88,1.88,0,0,0-1.88,1.88v41.26a1.88,1.88,0,1,0,3.77,0V214a1.9,1.9,0,0,0-1.88-1.88Z" class="cls-10"/><path d="M868.76,212.12a1.88,1.88,0,0,0-1.88,1.88v41.26a1.88,1.88,0,1,0,3.77,0V214a1.93,1.93,0,0,0-1.88-1.88Z" class="cls-10"/><path d="M878.11,212.12a1.88,1.88,0,0,0-1.88,1.88v41.26a1.88,1.88,0,1,0,3.77,0V214a1.88,1.88,0,0,0-1.88-1.88Z" class="cls-10"/><path d="M793.73,212.12a1.88,1.88,0,0,0-1.88,1.88v41.26a1.88,1.88,0,1,0,3.77,0V214a1.9,1.9,0,0,0-1.88-1.88Z" class="cls-10"/><path d="M784.35,212.12a1.88,1.88,0,0,0-1.88,1.88v41.26a1.88,1.88,0,1,0,3.77,0V214a1.88,1.88,0,0,0-1.88-1.88Z" class="cls-10"/><path d="M859.38,212.12A1.88,1.88,0,0,0,857.5,214v41.26a1.88,1.88,0,1,0,3.77,0V214a1.9,1.9,0,0,0-1.88-1.88Z" class="cls-10"/><path d="M850,212.12a1.88,1.88,0,0,0-1.88,1.88v41.26a1.88,1.88,0,1,0,3.77,0V214a1.9,1.9,0,0,0-1.88-1.88Z" class="cls-10"/><path d="M840.61,212.12a1.88,1.88,0,0,0-1.88,1.88v41.26a1.88,1.88,0,0,0,1.88,1.88,1.86,1.86,0,0,0,1.88-1.88V214a1.9,1.9,0,0,0-1.88-1.88Z" class="cls-10"/><path d="M781.2,199.79a1.62,1.62,0,1,1,1.62,1.62h0v.79" class="cls-11"/><circle cx="796.6" cy="124.82" r="15.4" class="cls-12"/><circle cx="791.1" cy="117.05" r="4.81" class="cls-13"/><polygon points="799.97 143.72 792.55 143.72 795.02 139.14 797.5 139.14 799.97 143.72" class="cls-12"/><path d="M799.15,140.59a.55.55,0,0,1-.55.55H794a.56.56,0,0,1-.56-.55h0A.55.55,0,0,1,794,140h4.56a.55.55,0,0,1,.55.56Z"/><line x1="796.26" x2="782.82" y1="141.14" y2="198.17" class="cls-11"/><circle cx="764.89" cy="118.04" r="15.4" class="cls-4"/><circle cx="759.39" cy="110.27" r="4.81" class="cls-13"/><polygon points="768.26 136.94 760.84 136.94 763.31 132.36 765.79 132.36 768.26 136.94" class="cls-4"/><path d="M767.44,133.81a.55.55,0,0,1-.55.55h-4.56a.56.56,0,0,1-.56-.55h0a.55.55,0,0,1,.56-.56h4.56a.55.55,0,0,1,.55.56Z"/><line x1="764.55" x2="782.82" y1="134.37" y2="199.42" class="cls-11"/><circle cx="782.64" cy="155.98" r="16.94" class="cls-14"/><circle cx="776.59" cy="147.43" r="5.29" class="cls-13"/><polygon points="786.34 176.77 778.17 176.77 780.9 171.73 783.62 171.73 786.34 176.77" class="cls-14"/><path d="M785.44,173.33a.61.61,0,0,1-.61.61h-5a.61.61,0,0,1-.61-.61h0a.61.61,0,0,1,.61-.61h5a.61.61,0,0,1,.61.61Z"/><line x1="782.26" x2="782.26" y1="173.93" y2="198.17" class="cls-11"/><path d="M872,199.79a1.62,1.62,0,1,1,1.62,1.62h0v.79" class="cls-11"/><circle cx="873.35" cy="125.91" r="15.4" class="cls-14"/><circle cx="867.85" cy="118.14" r="4.81" class="cls-13"/><polygon points="876.72 144.81 869.29 144.81 871.77 140.23 874.24 140.23 876.72 144.81" class="cls-14"/><path d="M875.89,141.68a.55.55,0,0,1-.55.55h-4.56a.56.56,0,0,1-.56-.55h0a.55.55,0,0,1,.56-.56h4.56a.55.55,0,0,1,.55.56Z"/><line x1="873" x2="873" y1="142.23" y2="200.19" class="cls-11"/><circle cx="882.92" cy="151.78" r="15.4" class="cls-15"/><circle cx="877.42" cy="144.01" r="4.81" class="cls-13"/><polygon points="886.29 170.68 878.86 170.68 881.34 166.09 883.81 166.09 886.29 170.68" class="cls-15"/><path d="M885.46,167.55a.55.55,0,0,1-.55.55h-4.56a.56.56,0,0,1-.56-.55h0a.55.55,0,0,1,.56-.56h4.56a.55.55,0,0,1,.55.56Z"/><line x1="882.57" x2="871.97" y1="168.1" y2="201.49" class="cls-11"/><circle cx="857.53" cy="144.15" r="15.4" class="cls-16"/><circle cx="852.03" cy="136.38" r="4.81" class="cls-13"/><polygon points="860.9 163.05 853.48 163.05 855.95 158.47 858.43 158.47 860.9 163.05" class="cls-16"/><path d="M860.08,159.92a.55.55,0,0,1-.55.55H855a.56.56,0,0,1-.56-.55h0a.55.55,0,0,1,.56-.56h4.56a.55.55,0,0,1,.55.56Z"/><line x1="857.19" x2="873.93" y1="160.47" y2="199.42" class="cls-11"/></g><g id="kran"><polygon points="1221.65 390 1197.66 390 1197.66 382.79 1221.65 390" class="cls-17"/><polyline points="1000.25 258.25 1049.48 241.32 1098.82 258.25" class="cls-18"/><rect width="7.82" height="31.98" x="1045.96" y="191.82" class="cls-18"/><polygon points="1044.19 223.15 1055.54 223.15 1049.87 231.8 1044.19 223.15" class="cls-14"/><path d="M1054,238a4.17,4.17,0,1,1-4.17-4.17V231.8" class="cls-18"/><line x1="1192.85" x2="1192.85" y1="213.02" y2="357.89" class="cls-18"/><line x1="1173.34" x2="1173.34" y1="213.02" y2="357.89" class="cls-18"/><rect width="19.5" height="19.5" x="1173.34" y="213.02" class="cls-18"/><rect width="19.5" height="19.5" x="1173.34" y="232.53" class="cls-18"/><rect width="19.5" height="19.5" x="1173.34" y="252.03" class="cls-18"/><rect width="19.5" height="19.5" x="1173.34" y="271.54" class="cls-18"/><rect width="19.5" height="19.5" x="1173.34" y="291.04" class="cls-18"/><rect width="19.5" height="19.5" x="1173.34" y="310.55" class="cls-18"/><rect width="19.5" height="19.5" x="1173.34" y="330.05" class="cls-18"/><rect width="19.5" height="19.51" x="1173.34" y="349.56" class="cls-18"/><line x1="1173.34" x2="1192.85" y1="213.02" y2="232.53" class="cls-18"/><line x1="1192.85" x2="1173.34" y1="232.53" y2="252.03" class="cls-18"/><line x1="1173.34" x2="1192.85" y1="252.03" y2="271.54" class="cls-18"/><line x1="1192.85" x2="1173.34" y1="271.54" y2="291.04" class="cls-18"/><line x1="1173.34" x2="1192.85" y1="291.04" y2="310.55" class="cls-18"/><line x1="1192.85" x2="1173.34" y1="310.55" y2="330.05" class="cls-18"/><line x1="1173.34" x2="1192.85" y1="330.05" y2="349.56" class="cls-18"/><line x1="1192.85" x2="1173.34" y1="349.56" y2="369.06" class="cls-18"/><path d="M1205.83,175.61l14.47,15.86h-14.47V175.61m-1-2.58v19.44h17.73L1204.83,173Z" class="cls-19"/><line x1="1013.13" x2="1207.28" y1="192.47" y2="192.47" class="cls-20"/><polygon points="1013.13 172.97 1013.13 192.47 1179.45 192.47 1205.76 192.47 1205.76 172.97 1013.13 172.97" class="cls-21"/><rect width="29.49" height="21.51" x="1168.18" y="192.42" class="cls-20"/><rect width="29.49" height="21.51" x="1168.18" y="368.49" class="cls-20"/></g><g id="containers"><g id="_3" data-name="3"><polygon points="1001.51 390 977.53 390 977.53 382.79 1001.51 390" class="cls-17"/><rect width="119.87" height="59.56" x="857.4" y="330.44" class="cls-6"/><rect width="112.81" height="52.5" x="860.93" y="333.97" class="cls-7"/><path d="M972.33,335.38v49.68h-110V335.38h110m1.41-1.41H860.93v52.5H973.74V334Z" class="cls-8"/><path d="M917.66,338.11a1.87,1.87,0,0,0-1.88,1.88v41.1a1.88,1.88,0,1,0,3.75,0V340a1.87,1.87,0,0,0-1.88-1.88Z" class="cls-9"/><path d="M908.32,338.11a1.87,1.87,0,0,0-1.88,1.88v41.1a1.88,1.88,0,1,0,3.75,0V340a1.87,1.87,0,0,0-1.88-1.88Z" class="cls-9"/><path d="M899,338.11a1.87,1.87,0,0,0-1.88,1.88v41.1a1.88,1.88,0,1,0,3.75,0V340a1.92,1.92,0,0,0-1.88-1.88Z" class="cls-9"/><path d="M889.66,338.11a1.87,1.87,0,0,0-1.88,1.88v41.1a1.88,1.88,0,1,0,3.75,0V340a1.9,1.9,0,0,0-1.88-1.88Z" class="cls-9"/><path d="M955,338.11a1.87,1.87,0,0,0-1.88,1.88v41.1a1.88,1.88,0,1,0,3.75,0V340a1.92,1.92,0,0,0-1.88-1.88Z" class="cls-9"/><path d="M964.36,338.11a1.87,1.87,0,0,0-1.88,1.88v41.1a1.88,1.88,0,1,0,3.75,0V340a1.87,1.87,0,0,0-1.88-1.88Z" class="cls-9"/><path d="M880.32,338.11a1.87,1.87,0,0,0-1.88,1.88v41.1a1.88,1.88,0,1,0,3.75,0V340a1.9,1.9,0,0,0-1.88-1.88Z" class="cls-9"/><path d="M871,338.11A1.87,1.87,0,0,0,869.1,340v41.1a1.88,1.88,0,1,0,3.75,0V340a1.87,1.87,0,0,0-1.88-1.88Z" class="cls-9"/><path d="M945.7,338.11a1.87,1.87,0,0,0-1.88,1.88v41.1a1.88,1.88,0,1,0,3.75,0V340a1.9,1.9,0,0,0-1.88-1.88Z" class="cls-9"/><path d="M936.35,338.11a1.87,1.87,0,0,0-1.88,1.88v41.1a1.88,1.88,0,1,0,3.75,0V340a1.9,1.9,0,0,0-1.88-1.88Z" class="cls-9"/><path d="M927,338.11a1.87,1.87,0,0,0-1.88,1.88v41.1A1.87,1.87,0,0,0,927,383a1.85,1.85,0,0,0,1.88-1.88V340a1.9,1.9,0,0,0-1.88-1.88Z" class="cls-9"/><path d="M917.34,337.78a1.87,1.87,0,0,0-1.88,1.88v41.1a1.88,1.88,0,1,0,3.75,0v-41.1a1.87,1.87,0,0,0-1.88-1.88Z" class="cls-10"/><path d="M908,337.78a1.87,1.87,0,0,0-1.88,1.88v41.1a1.88,1.88,0,1,0,3.75,0v-41.1a1.87,1.87,0,0,0-1.88-1.88Z" class="cls-10"/><path d="M898.68,337.78a1.87,1.87,0,0,0-1.88,1.88v41.1a1.88,1.88,0,1,0,3.75,0v-41.1a1.92,1.92,0,0,0-1.88-1.88Z" class="cls-10"/><path d="M889.33,337.78a1.87,1.87,0,0,0-1.88,1.88v41.1a1.88,1.88,0,1,0,3.75,0v-41.1a1.9,1.9,0,0,0-1.88-1.88Z" class="cls-10"/><path d="M954.71,337.78a1.87,1.87,0,0,0-1.88,1.88v41.1a1.88,1.88,0,1,0,3.75,0v-41.1a1.92,1.92,0,0,0-1.88-1.88Z" class="cls-10"/><path d="M964,337.78a1.87,1.87,0,0,0-1.88,1.88v41.1a1.88,1.88,0,1,0,3.75,0v-41.1a1.87,1.87,0,0,0-1.88-1.88Z" class="cls-10"/><path d="M880,337.78a1.87,1.87,0,0,0-1.88,1.88v41.1a1.88,1.88,0,1,0,3.75,0v-41.1a1.9,1.9,0,0,0-1.88-1.88Z" class="cls-10"/><path d="M870.65,337.78a1.87,1.87,0,0,0-1.88,1.88v41.1a1.88,1.88,0,1,0,3.75,0v-41.1a1.87,1.87,0,0,0-1.88-1.88Z" class="cls-10"/><path d="M945.37,337.78a1.87,1.87,0,0,0-1.88,1.88v41.1a1.88,1.88,0,1,0,3.75,0v-41.1a1.9,1.9,0,0,0-1.88-1.88Z" class="cls-10"/><path d="M936,337.78a1.87,1.87,0,0,0-1.88,1.88v41.1a1.88,1.88,0,1,0,3.75,0v-41.1a1.9,1.9,0,0,0-1.88-1.88Z" class="cls-10"/><path d="M926.68,337.78a1.87,1.87,0,0,0-1.88,1.88v41.1a1.87,1.87,0,0,0,1.88,1.88,1.85,1.85,0,0,0,1.88-1.88v-41.1a1.9,1.9,0,0,0-1.88-1.88Z" class="cls-10"/><rect width="119.87" height="1.75" x="857.24" y="388.25" class="cls-21"/><g class="cls-22"><path d="M942,373.43a5,5,0,0,1,1.54.21,3,3,0,0,1,1.07.58,2.32,2.32,0,0,1,.63.89,3.08,3.08,0,0,1,.21,1.14,3.17,3.17,0,0,1-.21,1.18,2.46,2.46,0,0,1-.64.92,3,3,0,0,1-1.07.6,4.79,4.79,0,0,1-1.51.21h-1.23v3.12h-1.65v-8.86Zm0,4.45a2.47,2.47,0,0,0,.79-.11,1.5,1.5,0,0,0,.56-.32,1.31,1.31,0,0,0,.33-.51,2,2,0,0,0,.11-.68,1.79,1.79,0,0,0-.11-.64,1.27,1.27,0,0,0-.33-.49,1.47,1.47,0,0,0-.56-.31,2.65,2.65,0,0,0-.8-.11h-1.23v3.18Z"/><path d="M951.75,380.92v1.36h-5.19v-8.86h1.65v7.5Z"/><path d="M960.91,382.28h-1.27a.55.55,0,0,1-.35-.11.67.67,0,0,1-.2-.27l-.66-1.81h-3.67l-.66,1.81a.59.59,0,0,1-.19.26.53.53,0,0,1-.35.12h-1.29l3.48-8.86h1.68ZM958,378.94,956.92,376c-.05-.13-.11-.29-.17-.47s-.11-.37-.17-.58c-.05.21-.11.4-.17.59s-.11.34-.17.47l-1.07,2.93Z"/><path d="M969.29,373.43v8.86h-.85a.66.66,0,0,1-.58-.28l-4.62-5.9q0,.4,0,.75v5.44h-1.45v-8.86h1l.14,0,.11.08.12.14,4.64,5.93c0-.14,0-.28,0-.42s0-.27,0-.39v-5.38Z"/></g><polygon points="913.44 390 894.44 330.44 977.28 330.44 977.28 390 913.44 390" class="cls-8"/></g><g id="_2" data-name="2"><polygon points="1159.81 390 1135.82 390 1135.82 382.79 1159.81 390" class="cls-17"/><rect width="119.87" height="59.56" x="1015.66" y="330.44" class="cls-6"/><rect width="119.87" height="1.75" x="1015.66" y="388.25" class="cls-21"/><rect width="112.81" height="52.5" x="1019.19" y="333.97" class="cls-7"/><path d="M1130.59,335.38v49.68h-110V335.38h110M1132,334H1019.19v52.5H1132V334Z" class="cls-8"/><path d="M1075.93,338.11A1.87,1.87,0,0,0,1074,340v41.1a1.88,1.88,0,1,0,3.75,0V340a1.87,1.87,0,0,0-1.88-1.88Z" class="cls-9"/><path d="M1066.58,338.11a1.87,1.87,0,0,0-1.88,1.88v41.1a1.88,1.88,0,1,0,3.75,0V340a1.87,1.87,0,0,0-1.88-1.88Z" class="cls-9"/><path d="M1057.27,338.11a1.87,1.87,0,0,0-1.88,1.88v41.1a1.88,1.88,0,1,0,3.75,0V340a1.92,1.92,0,0,0-1.88-1.88Z" class="cls-9"/><path d="M1047.92,338.11A1.87,1.87,0,0,0,1046,340v41.1a1.88,1.88,0,1,0,3.75,0V340a1.9,1.9,0,0,0-1.88-1.88Z" class="cls-9"/><path d="M1113.3,338.11a1.87,1.87,0,0,0-1.88,1.88v41.1a1.88,1.88,0,1,0,3.75,0V340a1.92,1.92,0,0,0-1.88-1.88Z" class="cls-9"/><path d="M1122.62,338.11a1.87,1.87,0,0,0-1.88,1.88v41.1a1.88,1.88,0,1,0,3.75,0V340a1.87,1.87,0,0,0-1.88-1.88Z" class="cls-9"/><path d="M1038.58,338.11a1.87,1.87,0,0,0-1.88,1.88v41.1a1.88,1.88,0,1,0,3.75,0V340a1.9,1.9,0,0,0-1.88-1.88Z" class="cls-9"/><path d="M1029.23,338.11a1.87,1.87,0,0,0-1.88,1.88v41.1a1.88,1.88,0,1,0,3.75,0V340a1.87,1.87,0,0,0-1.88-1.88Z" class="cls-9"/><path d="M1104,338.11a1.87,1.87,0,0,0-1.88,1.88v41.1a1.88,1.88,0,1,0,3.75,0V340a1.9,1.9,0,0,0-1.88-1.88Z" class="cls-9"/><path d="M1094.61,338.11a1.87,1.87,0,0,0-1.88,1.88v41.1a1.88,1.88,0,1,0,3.75,0V340a1.9,1.9,0,0,0-1.88-1.88Z" class="cls-9"/><path d="M1085.27,338.11a1.87,1.87,0,0,0-1.88,1.88v41.1a1.87,1.87,0,0,0,1.88,1.88,1.85,1.85,0,0,0,1.88-1.88V340a1.9,1.9,0,0,0-1.88-1.88Z" class="cls-9"/><path d="M1075.6,337.78a1.87,1.87,0,0,0-1.88,1.88v41.1a1.88,1.88,0,1,0,3.75,0v-41.1a1.87,1.87,0,0,0-1.88-1.88Z" class="cls-10"/><path d="M1066.25,337.78a1.87,1.87,0,0,0-1.88,1.88v41.1a1.88,1.88,0,1,0,3.75,0v-41.1a1.87,1.87,0,0,0-1.88-1.88Z" class="cls-10"/><path d="M1056.94,337.78a1.87,1.87,0,0,0-1.88,1.88v41.1a1.88,1.88,0,1,0,3.75,0v-41.1a1.92,1.92,0,0,0-1.88-1.88Z" class="cls-10"/><path d="M1047.59,337.78a1.87,1.87,0,0,0-1.88,1.88v41.1a1.88,1.88,0,1,0,3.75,0v-41.1a1.9,1.9,0,0,0-1.88-1.88Z" class="cls-10"/><path d="M1113,337.78a1.87,1.87,0,0,0-1.88,1.88v41.1a1.88,1.88,0,1,0,3.75,0v-41.1a1.92,1.92,0,0,0-1.88-1.88Z" class="cls-10"/><path d="M1122.29,337.78a1.87,1.87,0,0,0-1.88,1.88v41.1a1.88,1.88,0,1,0,3.75,0v-41.1a1.87,1.87,0,0,0-1.88-1.88Z" class="cls-10"/><path d="M1038.25,337.78a1.87,1.87,0,0,0-1.88,1.88v41.1a1.88,1.88,0,1,0,3.75,0v-41.1a1.9,1.9,0,0,0-1.88-1.88Z" class="cls-10"/><path d="M1028.91,337.78a1.87,1.87,0,0,0-1.88,1.88v41.1a1.88,1.88,0,1,0,3.75,0v-41.1a1.87,1.87,0,0,0-1.88-1.88Z" class="cls-10"/><path d="M1103.63,337.78a1.87,1.87,0,0,0-1.88,1.88v41.1a1.88,1.88,0,1,0,3.75,0v-41.1a1.9,1.9,0,0,0-1.88-1.88Z" class="cls-10"/><path d="M1094.29,337.78a1.87,1.87,0,0,0-1.88,1.88v41.1a1.88,1.88,0,1,0,3.75,0v-41.1a1.9,1.9,0,0,0-1.88-1.88Z" class="cls-10"/><path d="M1084.94,337.78a1.87,1.87,0,0,0-1.88,1.88v41.1a1.87,1.87,0,0,0,1.88,1.88,1.85,1.85,0,0,0,1.88-1.88v-41.1a1.9,1.9,0,0,0-1.88-1.88Z" class="cls-10"/><polygon points="1016.11 333.97 1035.12 390 1016.11 390 1016.11 333.97" class="cls-8"/><g class="cls-22"><path d="M1082.9,377.86a5,5,0,0,1-.32,1.8,4.22,4.22,0,0,1-.91,1.44,4.14,4.14,0,0,1-1.42.95,5.12,5.12,0,0,1-3.67,0,4.16,4.16,0,0,1-1.42-.95,4.25,4.25,0,0,1-.92-1.44,5.17,5.17,0,0,1,0-3.61,4.25,4.25,0,0,1,.92-1.44,4.16,4.16,0,0,1,1.42-.95,4.77,4.77,0,0,1,1.83-.34,5,5,0,0,1,1.27.16,4.45,4.45,0,0,1,1.09.44,4,4,0,0,1,.89.69,4.2,4.2,0,0,1,.67.91,4.45,4.45,0,0,1,.42,1.09A5.2,5.2,0,0,1,1082.9,377.86Zm-1.68,0a4.07,4.07,0,0,0-.2-1.31,2.8,2.8,0,0,0-.56-1,2.39,2.39,0,0,0-.88-.62,3.29,3.29,0,0,0-2.33,0,2.42,2.42,0,0,0-.88.62,2.78,2.78,0,0,0-.56,1,4.47,4.47,0,0,0,0,2.62,2.75,2.75,0,0,0,.56,1,2.42,2.42,0,0,0,.88.62,3.28,3.28,0,0,0,2.33,0,2.4,2.4,0,0,0,.88-.62,2.77,2.77,0,0,0,.56-1A4.06,4.06,0,0,0,1081.22,377.86Z"/><path d="M1087.23,373.43a5.05,5.05,0,0,1,1.54.21,3,3,0,0,1,1.07.58,2.31,2.31,0,0,1,.63.89,3.08,3.08,0,0,1,.21,1.14,3.15,3.15,0,0,1-.21,1.18,2.46,2.46,0,0,1-.64.92,3,3,0,0,1-1.07.6,4.79,4.79,0,0,1-1.51.21H1086v3.12h-1.65v-8.86Zm0,4.45a2.48,2.48,0,0,0,.79-.11,1.51,1.51,0,0,0,.56-.32,1.31,1.31,0,0,0,.33-.51,2,2,0,0,0,.11-.68,1.79,1.79,0,0,0-.11-.64,1.27,1.27,0,0,0-.33-.49,1.46,1.46,0,0,0-.56-.31,2.64,2.64,0,0,0-.8-.11H1086v3.18Z"/><path d="M1093.44,374.74v2.46h3.1v1.27h-3.1V381h3.93v1.32h-5.59v-8.86h5.59v1.31Z"/><path d="M1105.69,382.28h-1.49a.65.65,0,0,1-.61-.33l-1.86-2.84a.65.65,0,0,0-.23-.23.8.8,0,0,0-.37-.07h-.7v3.46h-1.65v-8.86h2.7a5.62,5.62,0,0,1,1.55.19,3,3,0,0,1,1.06.52,2,2,0,0,1,.61.81,2.65,2.65,0,0,1,.2,1,2.69,2.69,0,0,1-.13.85,2.44,2.44,0,0,1-.38.72,2.53,2.53,0,0,1-.61.57,3,3,0,0,1-.83.39,1.65,1.65,0,0,1,.29.22,1.55,1.55,0,0,1,.25.3Zm-4.24-4.64a2.54,2.54,0,0,0,.81-.12,1.57,1.57,0,0,0,.57-.32,1.31,1.31,0,0,0,.33-.49,1.69,1.69,0,0,0,.11-.62,1.26,1.26,0,0,0-.44-1,2.13,2.13,0,0,0-1.36-.36h-1.05v2.94Z"/><path d="M1114.74,382.28h-1.27a.54.54,0,0,1-.35-.11.67.67,0,0,1-.2-.27l-.66-1.81h-3.67l-.66,1.81a.59.59,0,0,1-.19.26.53.53,0,0,1-.35.12h-1.29l3.49-8.86h1.68Zm-2.91-3.34-1.08-2.95q-.08-.2-.17-.47t-.17-.58c-.05.21-.11.4-.17.59s-.11.34-.16.47l-1.07,2.93Z"/><path d="M1120.9,374.78h-2.67v7.5h-1.65v-7.5h-2.67v-1.35h7Z"/><path d="M1123.58,374.74v2.46h3.1v1.27h-3.1V381h3.93v1.32h-5.59v-8.86h5.59v1.31Z"/></g></g><polygon points="385.66 392.94 358.25 392.94 358.25 384.71 385.66 392.94" class="cls-23"/><g id="_1" data-name="1"><rect width="119.87" height="59.56" x="989.6" y="257.27" class="cls-6"/><rect width="112.81" height="52.5" x="993.13" y="260.8" class="cls-7"/><path d="M1104.53,262.21v49.68h-110V262.21h110m1.41-1.41H993.13v52.5h112.81V260.8Z" class="cls-8"/><path d="M1049.86,264.94a1.87,1.87,0,0,0-1.88,1.88v41.1a1.88,1.88,0,1,0,3.75,0v-41.1a1.87,1.87,0,0,0-1.88-1.88Z" class="cls-9"/><path d="M1040.52,264.94a1.87,1.87,0,0,0-1.88,1.88v41.1a1.88,1.88,0,1,0,3.75,0v-41.1a1.87,1.87,0,0,0-1.88-1.88Z" class="cls-9"/><path d="M1031.21,264.94a1.87,1.87,0,0,0-1.88,1.88v41.1a1.88,1.88,0,1,0,3.75,0v-41.1a1.92,1.92,0,0,0-1.88-1.88Z" class="cls-9"/><path d="M1021.86,264.94a1.87,1.87,0,0,0-1.88,1.88v41.1a1.88,1.88,0,1,0,3.75,0v-41.1a1.9,1.9,0,0,0-1.88-1.88Z" class="cls-9"/><path d="M1087.24,264.94a1.87,1.87,0,0,0-1.88,1.88v41.1a1.88,1.88,0,1,0,3.75,0v-41.1a1.92,1.92,0,0,0-1.88-1.88Z" class="cls-9"/><path d="M1096.55,264.94a1.87,1.87,0,0,0-1.88,1.88v41.1a1.88,1.88,0,1,0,3.75,0v-41.1a1.87,1.87,0,0,0-1.88-1.88Z" class="cls-9"/><path d="M1012.52,264.94a1.87,1.87,0,0,0-1.88,1.88v41.1a1.88,1.88,0,1,0,3.75,0v-41.1a1.9,1.9,0,0,0-1.88-1.88Z" class="cls-9"/><path d="M1003.17,264.94a1.87,1.87,0,0,0-1.88,1.88v41.1a1.88,1.88,0,1,0,3.75,0v-41.1a1.87,1.87,0,0,0-1.88-1.88Z" class="cls-9"/><path d="M1077.9,264.94a1.87,1.87,0,0,0-1.88,1.88v41.1a1.88,1.88,0,1,0,3.75,0v-41.1a1.9,1.9,0,0,0-1.88-1.88Z" class="cls-9"/><path d="M1068.55,264.94a1.87,1.87,0,0,0-1.88,1.88v41.1a1.88,1.88,0,1,0,3.75,0v-41.1a1.9,1.9,0,0,0-1.88-1.88Z" class="cls-9"/><path d="M1059.21,264.94a1.87,1.87,0,0,0-1.88,1.88v41.1a1.87,1.87,0,0,0,1.88,1.88,1.85,1.85,0,0,0,1.88-1.88v-41.1a1.9,1.9,0,0,0-1.88-1.88Z" class="cls-9"/><path d="M1049.53,264.61a1.87,1.87,0,0,0-1.88,1.88v41.1a1.88,1.88,0,1,0,3.75,0v-41.1a1.87,1.87,0,0,0-1.88-1.88Z" class="cls-10"/><path d="M1040.19,264.61a1.87,1.87,0,0,0-1.88,1.88v41.1a1.88,1.88,0,1,0,3.75,0v-41.1a1.87,1.87,0,0,0-1.88-1.88Z" class="cls-10"/><path d="M1030.88,264.61a1.87,1.87,0,0,0-1.88,1.88v41.1a1.88,1.88,0,1,0,3.75,0v-41.1a1.92,1.92,0,0,0-1.88-1.88Z" class="cls-10"/><path d="M1021.53,264.61a1.87,1.87,0,0,0-1.88,1.88v41.1a1.88,1.88,0,1,0,3.75,0v-41.1a1.9,1.9,0,0,0-1.88-1.88Z" class="cls-10"/><path d="M1086.91,264.61a1.87,1.87,0,0,0-1.88,1.88v41.1a1.88,1.88,0,1,0,3.75,0v-41.1a1.92,1.92,0,0,0-1.88-1.88Z" class="cls-10"/><path d="M1096.22,264.61a1.87,1.87,0,0,0-1.88,1.88v41.1a1.88,1.88,0,1,0,3.75,0v-41.1a1.87,1.87,0,0,0-1.88-1.88Z" class="cls-10"/><path d="M1012.19,264.61a1.87,1.87,0,0,0-1.88,1.88v41.1a1.88,1.88,0,1,0,3.75,0v-41.1a1.9,1.9,0,0,0-1.88-1.88Z" class="cls-10"/><path d="M1002.84,264.61a1.87,1.87,0,0,0-1.88,1.88v41.1a1.88,1.88,0,1,0,3.75,0v-41.1a1.87,1.87,0,0,0-1.88-1.88Z" class="cls-10"/><path d="M1077.57,264.61a1.87,1.87,0,0,0-1.88,1.88v41.1a1.88,1.88,0,1,0,3.75,0v-41.1a1.9,1.9,0,0,0-1.88-1.88Z" class="cls-10"/><path d="M1068.22,264.61a1.87,1.87,0,0,0-1.88,1.88v41.1a1.88,1.88,0,1,0,3.75,0v-41.1a1.9,1.9,0,0,0-1.88-1.88Z" class="cls-10"/><path d="M1058.88,264.61a1.87,1.87,0,0,0-1.88,1.88v41.1a1.87,1.87,0,0,0,1.88,1.88,1.85,1.85,0,0,0,1.88-1.88v-41.1a1.9,1.9,0,0,0-1.88-1.88Z" class="cls-10"/><g class="cls-22"><path d="M1070.79,300.26a5.83,5.83,0,0,1,1.49.16,2.83,2.83,0,0,1,1,.47,1.83,1.83,0,0,1,.58.74,2.48,2.48,0,0,1,.18,1,2,2,0,0,1-.09.6,1.73,1.73,0,0,1-.29.53,2.12,2.12,0,0,1-.49.45,3,3,0,0,1-.71.34q1.83.41,1.83,2a2.52,2.52,0,0,1-.21,1,2.29,2.29,0,0,1-.62.82,3,3,0,0,1-1,.54,4.41,4.41,0,0,1-1.37.2h-3.34v-8.86Zm-1.4,1.27v2.56h1.31a2.2,2.2,0,0,0,1.28-.31,1.11,1.11,0,0,0,.43-1,1.15,1.15,0,0,0-.39-1,2,2,0,0,0-1.22-.29Zm1.67,6.3a2.34,2.34,0,0,0,.77-.11,1.32,1.32,0,0,0,.5-.29,1.08,1.08,0,0,0,.27-.43,1.63,1.63,0,0,0,.08-.52,1.38,1.38,0,0,0-.09-.52,1,1,0,0,0-.29-.39,1.34,1.34,0,0,0-.51-.25,2.81,2.81,0,0,0-.74-.09h-1.66v2.6Z"/><path d="M1079.35,307.79a2.18,2.18,0,0,0,.85-.16,1.76,1.76,0,0,0,.63-.45,2,2,0,0,0,.39-.7,2.87,2.87,0,0,0,.14-.92v-5.3H1083v5.3a4.09,4.09,0,0,1-.25,1.46,3.24,3.24,0,0,1-1.88,1.92,4.45,4.45,0,0,1-3.07,0,3.3,3.3,0,0,1-1.16-.76,3.34,3.34,0,0,1-.73-1.16,4.09,4.09,0,0,1-.25-1.46v-5.3h1.65v5.3a2.88,2.88,0,0,0,.14.92,2,2,0,0,0,.4.7,1.76,1.76,0,0,0,.64.45A2.18,2.18,0,0,0,1079.35,307.79Z"/><path d="M1086.54,309.12h-1.65v-8.86h1.65Z"/><path d="M1093.68,307.76v1.36h-5.19v-8.86h1.65v7.5Z"/><path d="M1102.58,304.69a4.79,4.79,0,0,1-.32,1.79,4,4,0,0,1-2.33,2.32,5,5,0,0,1-1.84.32h-3.38v-8.86h3.38a5,5,0,0,1,1.84.33,4.16,4.16,0,0,1,1.42.91,4.08,4.08,0,0,1,.91,1.4A4.79,4.79,0,0,1,1102.58,304.69Zm-1.69,0a4.14,4.14,0,0,0-.19-1.31,2.71,2.71,0,0,0-.56-1,2.42,2.42,0,0,0-.88-.62,3,3,0,0,0-1.17-.21h-1.72v6.24h1.72a3,3,0,0,0,1.17-.21,2.42,2.42,0,0,0,.88-.62,2.71,2.71,0,0,0,.56-1A4.14,4.14,0,0,0,1100.88,304.69Z"/></g></g><polygon points="385.66 377.46 358.25 377.46 358.25 369.23 385.66 377.46" class="cls-23"/></g><g id="community"><g id="container"><rect width="136.99" height="68.06" x="255.19" y="241.14" class="cls-6"/><rect width="128.92" height="60" x="259.23" y="245.17" class="cls-7"/><path d="M386.54,246.78v56.77H260.84V246.78h125.7m1.61-1.61H259.23v60H388.15v-60Z" class="cls-8"/><path d="M324.06,249.9a2.14,2.14,0,0,0-2.14,2.14v47a2.14,2.14,0,1,0,4.29,0V252a2.14,2.14,0,0,0-2.14-2.14Z" class="cls-9"/><path d="M313.39,249.9a2.14,2.14,0,0,0-2.14,2.14v47a2.14,2.14,0,1,0,4.29,0V252a2.14,2.14,0,0,0-2.14-2.14Z" class="cls-9"/><path d="M302.74,249.9A2.14,2.14,0,0,0,300.6,252v47a2.14,2.14,0,1,0,4.29,0V252a2.19,2.19,0,0,0-2.14-2.14Z" class="cls-9"/><path d="M292.06,249.9a2.14,2.14,0,0,0-2.14,2.14v47a2.14,2.14,0,1,0,4.29,0V252a2.17,2.17,0,0,0-2.14-2.14Z" class="cls-9"/><path d="M366.78,249.9a2.14,2.14,0,0,0-2.14,2.14v47a2.14,2.14,0,1,0,4.29,0V252a2.19,2.19,0,0,0-2.14-2.14Z" class="cls-9"/><path d="M377.42,249.9a2.14,2.14,0,0,0-2.14,2.14v47a2.14,2.14,0,1,0,4.29,0V252a2.14,2.14,0,0,0-2.14-2.14Z" class="cls-9"/><path d="M281.38,249.9a2.14,2.14,0,0,0-2.14,2.14v47a2.14,2.14,0,1,0,4.29,0V252a2.17,2.17,0,0,0-2.14-2.14Z" class="cls-9"/><path d="M270.71,249.9a2.14,2.14,0,0,0-2.14,2.14v47a2.14,2.14,0,1,0,4.29,0V252a2.14,2.14,0,0,0-2.14-2.14Z" class="cls-9"/><path d="M356.1,249.9A2.14,2.14,0,0,0,354,252v47a2.14,2.14,0,1,0,4.29,0V252a2.17,2.17,0,0,0-2.14-2.14Z" class="cls-9"/><path d="M345.42,249.9a2.14,2.14,0,0,0-2.14,2.14v47a2.14,2.14,0,1,0,4.29,0V252a2.17,2.17,0,0,0-2.14-2.14Z" class="cls-9"/><path d="M334.74,249.9A2.14,2.14,0,0,0,332.6,252v47a2.14,2.14,0,0,0,2.14,2.14,2.12,2.12,0,0,0,2.14-2.14V252a2.17,2.17,0,0,0-2.14-2.14Z" class="cls-9"/><path d="M323.69,249.52a2.14,2.14,0,0,0-2.14,2.14v47a2.14,2.14,0,1,0,4.29,0v-47a2.14,2.14,0,0,0-2.14-2.14Z" class="cls-10"/><path d="M313,249.52a2.14,2.14,0,0,0-2.14,2.14v47a2.14,2.14,0,1,0,4.29,0v-47a2.14,2.14,0,0,0-2.14-2.14Z" class="cls-10"/><path d="M302.37,249.52a2.14,2.14,0,0,0-2.14,2.14v47a2.14,2.14,0,1,0,4.29,0v-47a2.19,2.19,0,0,0-2.14-2.14Z" class="cls-10"/><path d="M291.69,249.52a2.14,2.14,0,0,0-2.14,2.14v47a2.14,2.14,0,1,0,4.29,0v-47a2.17,2.17,0,0,0-2.14-2.14Z" class="cls-10"/><path d="M366.41,249.52a2.14,2.14,0,0,0-2.14,2.14v47a2.14,2.14,0,1,0,4.29,0v-47a2.19,2.19,0,0,0-2.14-2.14Z" class="cls-10"/><path d="M377,249.52a2.14,2.14,0,0,0-2.14,2.14v47a2.14,2.14,0,1,0,4.29,0v-47a2.14,2.14,0,0,0-2.14-2.14Z" class="cls-10"/><path d="M281,249.52a2.14,2.14,0,0,0-2.14,2.14v47a2.14,2.14,0,1,0,4.29,0v-47a2.17,2.17,0,0,0-2.14-2.14Z" class="cls-10"/><path d="M270.33,249.52a2.14,2.14,0,0,0-2.14,2.14v47a2.14,2.14,0,1,0,4.29,0v-47a2.14,2.14,0,0,0-2.14-2.14Z" class="cls-10"/><path d="M355.73,249.52a2.14,2.14,0,0,0-2.14,2.14v47a2.14,2.14,0,1,0,4.29,0v-47a2.17,2.17,0,0,0-2.14-2.14Z" class="cls-10"/><path d="M345,249.52a2.14,2.14,0,0,0-2.14,2.14v47a2.14,2.14,0,1,0,4.29,0v-47a2.17,2.17,0,0,0-2.14-2.14Z" class="cls-10"/><path d="M334.37,249.52a2.14,2.14,0,0,0-2.14,2.14v47a2.14,2.14,0,0,0,2.14,2.14,2.12,2.12,0,0,0,2.14-2.14v-47a2.17,2.17,0,0,0-2.14-2.14Z" class="cls-10"/><rect width="136.99" height="2" x="255.19" y="307.2" class="cls-24"/></g><g id="container_unten" data-name="container unten"><rect width="136.99" height="68.06" x="220.39" y="309.4" class="cls-6"/><rect width="128.92" height="60" x="224.42" y="313.43" class="cls-7"/><path d="M351.74,315v56.77H226V315h125.7m1.61-1.61H224.42v60H353.35v-60Z" class="cls-8"/><path d="M289.26,318.16a2.14,2.14,0,0,0-2.14,2.14v47a2.14,2.14,0,1,0,4.29,0v-47a2.14,2.14,0,0,0-2.14-2.14Z" class="cls-9"/><path d="M278.58,318.16a2.14,2.14,0,0,0-2.14,2.14v47a2.14,2.14,0,1,0,4.29,0v-47a2.14,2.14,0,0,0-2.14-2.14Z" class="cls-9"/><path d="M267.94,318.16a2.14,2.14,0,0,0-2.14,2.14v47a2.14,2.14,0,1,0,4.29,0v-47a2.19,2.19,0,0,0-2.14-2.14Z" class="cls-9"/><path d="M257.26,318.16a2.14,2.14,0,0,0-2.14,2.14v47a2.14,2.14,0,1,0,4.29,0v-47a2.17,2.17,0,0,0-2.14-2.14Z" class="cls-9"/><path d="M332,318.16a2.14,2.14,0,0,0-2.14,2.14v47a2.14,2.14,0,1,0,4.29,0v-47a2.19,2.19,0,0,0-2.14-2.14Z" class="cls-9"/><path d="M342.62,318.16a2.14,2.14,0,0,0-2.14,2.14v47a2.14,2.14,0,1,0,4.29,0v-47a2.14,2.14,0,0,0-2.14-2.14Z" class="cls-9"/><path d="M246.58,318.16a2.14,2.14,0,0,0-2.14,2.14v47a2.14,2.14,0,1,0,4.29,0v-47a2.17,2.17,0,0,0-2.14-2.14Z" class="cls-9"/><path d="M235.9,318.16a2.14,2.14,0,0,0-2.14,2.14v47a2.14,2.14,0,1,0,4.29,0v-47a2.14,2.14,0,0,0-2.14-2.14Z" class="cls-9"/><path d="M321.3,318.16a2.14,2.14,0,0,0-2.14,2.14v47a2.14,2.14,0,1,0,4.29,0v-47a2.17,2.17,0,0,0-2.14-2.14Z" class="cls-9"/><path d="M310.62,318.16a2.14,2.14,0,0,0-2.14,2.14v47a2.14,2.14,0,1,0,4.29,0v-47a2.17,2.17,0,0,0-2.14-2.14Z" class="cls-9"/><path d="M299.94,318.16a2.14,2.14,0,0,0-2.14,2.14v47a2.14,2.14,0,0,0,2.14,2.14,2.12,2.12,0,0,0,2.14-2.14v-47a2.17,2.17,0,0,0-2.14-2.14Z" class="cls-9"/><path d="M288.89,317.78a2.14,2.14,0,0,0-2.14,2.14v47a2.14,2.14,0,1,0,4.29,0v-47a2.14,2.14,0,0,0-2.14-2.14Z" class="cls-10"/><path d="M278.21,317.78a2.14,2.14,0,0,0-2.14,2.14v47a2.14,2.14,0,1,0,4.29,0v-47a2.14,2.14,0,0,0-2.14-2.14Z" class="cls-10"/><path d="M267.57,317.78a2.14,2.14,0,0,0-2.14,2.14v47a2.14,2.14,0,1,0,4.29,0v-47a2.19,2.19,0,0,0-2.14-2.14Z" class="cls-10"/><path d="M256.89,317.78a2.14,2.14,0,0,0-2.14,2.14v47a2.14,2.14,0,1,0,4.29,0v-47a2.17,2.17,0,0,0-2.14-2.14Z" class="cls-10"/><path d="M331.6,317.78a2.14,2.14,0,0,0-2.14,2.14v47a2.14,2.14,0,1,0,4.29,0v-47a2.19,2.19,0,0,0-2.14-2.14Z" class="cls-10"/><path d="M342.25,317.78a2.14,2.14,0,0,0-2.14,2.14v47a2.14,2.14,0,1,0,4.29,0v-47a2.14,2.14,0,0,0-2.14-2.14Z" class="cls-10"/><path d="M246.21,317.78a2.14,2.14,0,0,0-2.14,2.14v47a2.14,2.14,0,1,0,4.29,0v-47a2.17,2.17,0,0,0-2.14-2.14Z" class="cls-10"/><path d="M235.53,317.78a2.14,2.14,0,0,0-2.14,2.14v47a2.14,2.14,0,1,0,4.29,0v-47a2.14,2.14,0,0,0-2.14-2.14Z" class="cls-10"/><path d="M320.92,317.78a2.14,2.14,0,0,0-2.14,2.14v47a2.14,2.14,0,1,0,4.29,0v-47a2.17,2.17,0,0,0-2.14-2.14Z" class="cls-10"/><path d="M310.25,317.78a2.14,2.14,0,0,0-2.14,2.14v47a2.14,2.14,0,1,0,4.29,0v-47a2.17,2.17,0,0,0-2.14-2.14Z" class="cls-10"/><path d="M299.57,317.78a2.14,2.14,0,0,0-2.14,2.14v47a2.14,2.14,0,0,0,2.14,2.14,2.12,2.12,0,0,0,2.14-2.14v-47a2.17,2.17,0,0,0-2.14-2.14Z" class="cls-10"/><rect width="136.99" height="2" x="220.39" y="375.46" class="cls-21"/><polygon points="276.91 377.46 255.19 309.4 357.96 309.4 357.96 377.46 276.91 377.46" class="cls-8"/></g><g id="frau"><path d="M363.26,321.77H308.12a2.52,2.52,0,0,0-2.51,2.57v17a2.56,2.56,0,0,0,2.51,2.62h42.36v4.58l3.4-4.58h9.38a2.71,2.71,0,0,0,2.69-2.62v-17A2.67,2.67,0,0,0,363.26,321.77Z" class="cls-25"/><ellipse cx="327.87" cy="472.86" class="cls-17" rx="23.26" ry="4.51"/><path d="M306.87,367.52c0-1.2,1.67-2.24,1.87-3.38s-1-2.72-.61-3.81,2.33-1.52,2.91-2.53,0-2.89.74-3.79,2.7-.62,3.6-1.38,1-2.72,2-3.31,2.74.34,3.86-.07,1.83-2.22,3-2.43,2.45,1.26,3.65,1.26,2.51-1.46,3.65-1.26,1.9,2,3,2.43,2.85-.52,3.86.07,1.08,2.56,2,3.31,2.85.48,3.6,1.38.15,2.77.74,3.79,2.51,1.41,2.91,2.53-.81,2.64-.61,3.81,1.87,2.18,1.87,3.37-1.67,2.24-1.87,3.38,1,2.72.61,3.81-2.33,1.52-2.91,2.53,0,2.89-.74,3.79-2.7.62-3.6,1.38-1,2.72-2,3.31-2.74-.34-3.86.07-1.83,2.22-3,2.43-2.45-1.26-3.65-1.26-2.51,1.46-3.65,1.26-1.9-2-3-2.43-2.85.52-3.86-.07-1.08-2.56-2-3.31-2.85-.48-3.6-1.38-.15-2.77-.74-3.79-2.51-1.41-2.91-2.53.81-2.64.61-3.81S306.87,368.72,306.87,367.52Z" class="cls-26"/><path d="M339.16,381l-22.64-.2a3.4,3.4,0,0,1-3.25-4.29l5-18.35,18.3-2.22,5.94,20.73A3.4,3.4,0,0,1,339.16,381Z" class="cls-26"/><line x1="322.82" x2="322.82" y1="426.42" y2="465.48" class="cls-27"/><line x1="322.82" x2="322.82" y1="460.18" y2="469.82" class="cls-28"/><line x1="322.82" x2="322.82" y1="455.66" y2="465.29" class="cls-29"/><line x1="332.21" x2="332.21" y1="426.42" y2="465.48" class="cls-27"/><line x1="332.21" x2="332.21" y1="460.18" y2="469.82" class="cls-28"/><line x1="332.21" x2="332.21" y1="455.66" y2="465.29" class="cls-29"/><rect width="5.68" height="5.68" x="324.68" y="379.11" class="cls-30"/><path d="M327.52,380.62a8.23,8.23,0,0,1-2.84-.51v1.33a8.14,8.14,0,0,0,5.68,0v-1.33A8.23,8.23,0,0,1,327.52,380.62Z" class="cls-31"/><path d="M311.61,433.51V396.12c0-5.62,7.65-10.37,16.71-10.37" class="cls-32"/><line x1="311.61" x2="311.61" y1="436.23" y2="430.79" class="cls-33"/><line x1="311.61" x2="311.61" y1="432.84" y2="402.12" class="cls-34"/><path d="M375.27,385.76H337.88c-5.62,0-10.37,7.65-10.37,16.71" class="cls-32"/><line x1="377.99" x2="372.55" y1="385.76" y2="385.76" class="cls-33"/><line x1="374.6" x2="343.88" y1="385.76" y2="385.76" class="cls-34"/><path id="_Pfad_" d="M335.78,372.62a8.26,8.26,0,0,1-16.52,0V362.46h16.52Z" class="cls-35" data-name="&lt;Pfad&gt;"/><path d="M318,360v3c1.74,1.38,5.35,2.34,9.52,2.34s7.64-.92,9.42-2.26V360Z" class="cls-36"/><ellipse cx="335.78" cy="371.04" class="cls-35" rx="1.73" ry="2.48"/><ellipse cx="318.74" cy="371.04" class="cls-35" rx="1.73" ry="2.48"/><circle id="_Pfad_2" cx="332.09" cy="366.96" r=".81" class="cls-37" data-name="&lt;Pfad&gt;"/><circle id="_Pfad_3" cx="323.63" cy="366.96" r=".81" class="cls-37" data-name="&lt;Pfad&gt;"/><path d="M337,362.08v-.52a2.4,2.4,0,0,0-2.06-2.37l-7.45-1-7.45,1a2.4,2.4,0,0,0-2.06,2.37v.52Z" class="cls-26"/><path d="M338.13,357.08s-2.21,6.59-12.16,6.59a10.37,10.37,0,0,1-10.14-7s3.68,3.89,9.15-1.37C326.22,353.17,336.34,352.12,338.13,357.08Z" class="cls-26"/><path d="M340.71,442H314.32V396.12a13.2,13.2,0,0,1,13.2-13.2h0a13.2,13.2,0,0,1,13.2,13.2Z" class="cls-12"/></g><g id="paar2"><path d="M191.57,313.23H151.23a1.84,1.84,0,0,0-1.84,1.88v12.42a1.87,1.87,0,0,0,1.84,1.92h31v3.35l2.49-3.35h6.86a2,2,0,0,0,2-1.92V315.11A2,2,0,0,0,191.57,313.23Z" class="cls-25"/><g id="frau-2" data-name="frau"><ellipse cx="194.19" cy="391.97" class="cls-17" rx="11.61" ry="1.93"/><path d="M198.48,341.48h-2.79a3.84,3.84,0,0,0,2.79,3.35Z" class="cls-38"/><path d="M198.53,343.54c0,1.85-2,3.36-4.48,3.36h-.19c-2.47,0-4.48-1.5-4.48-3.36v-1.65c0-1.88,2-3.4,4.54-3.4H194c2.5,0,4.54,1.52,4.54,3.4Z" class="cls-38"/><ellipse cx="194.21" cy="347.35" class="cls-38" rx="5.02" ry="4.44"/><line x1="191.95" x2="191.95" y1="371.89" y2="389.31" class="cls-39"/><line x1="191.95" x2="191.95" y1="386.94" y2="391.24" class="cls-40"/><line x1="191.95" x2="191.95" y1="384.92" y2="389.22" class="cls-41"/><line x1="196.14" x2="196.14" y1="371.89" y2="389.31" class="cls-39"/><line x1="196.14" x2="196.14" y1="386.94" y2="391.24" class="cls-40"/><line x1="196.14" x2="196.14" y1="384.92" y2="389.22" class="cls-41"/><rect width="2.53" height="2.53" x="192.78" y="350.8" class="cls-30"/><path d="M194,351.47a3.67,3.67,0,0,1-1.27-.23v.59a3.63,3.63,0,0,0,2.53,0v-.59A3.67,3.67,0,0,1,194,351.47Z" class="cls-31"/><path d="M187,375V358.36c0-2.51,3.41-4.62,7.45-4.62" class="cls-42"/><line x1="186.96" x2="186.96" y1="376.25" y2="373.82" class="cls-43"/><line x1="186.96" x2="186.96" y1="374.73" y2="361.04" class="cls-44"/><path d="M201.17,375.23V358.56c0-2.51-3.41-4.62-7.45-4.62" class="cls-42"/><line x1="201.17" x2="201.17" y1="376.44" y2="374.02" class="cls-43"/><line x1="201.17" x2="201.17" y1="374.93" y2="361.23" class="cls-44"/><path d="M199.93,369.28H188.16v-10.9A5.88,5.88,0,0,1,194,352.5h0a5.88,5.88,0,0,1,5.88,5.88Z" class="cls-15"/><path id="_Pfad_4" d="M197.73,347.9a3.68,3.68,0,0,1-7.37,0v-4.53h7.37Z" class="cls-35" data-name="&lt;Pfad&gt;"/><path d="M189.8,342.29v1.35a7.42,7.42,0,0,0,4.24,1,7.55,7.55,0,0,0,4.2-1v-1.38Z" class="cls-36"/><ellipse cx="197.73" cy="347.2" class="cls-35" rx=".77" ry="1.11"/><ellipse cx="190.14" cy="347.2" class="cls-35" rx=".77" ry="1.11"/><circle id="_Pfad_5" cx="196.09" cy="345.38" r=".36" data-name="&lt;Pfad&gt;"/><circle id="_Pfad_6" cx="192.32" cy="345.38" r=".36" data-name="&lt;Pfad&gt;"/><path d="M198.34,342s-5.82-.41-6.62,3.38c-2-3.41.87-4.63,2.55-4.36A34.39,34.39,0,0,1,198.34,342Z" class="cls-38"/><path d="M197.57,341.2s-6.22-.41-7,3.39c-1.79-4.84,1.27-4.64,3-4.36A34.41,34.41,0,0,1,197.57,341.2Z" class="cls-38"/><rect width="9.71" height="5.39" x="189.35" y="369.28" class="cls-14"/></g><g id="mann"><ellipse cx="165.31" cy="391.97" class="cls-17" rx="11.61" ry="1.93"/><line x1="168.44" x2="162.83" y1="369.77" y2="388.41" class="cls-45"/><line x1="163.59" x2="162.2" y1="385.89" y2="390.48" class="cls-46"/><line x1="164.24" x2="162.85" y1="383.72" y2="388.32" class="cls-47"/><line x1="168.44" x2="168.44" y1="369.77" y2="389.24" class="cls-45"/><line x1="168.44" x2="168.44" y1="386.6" y2="391.4" class="cls-46"/><line x1="168.44" x2="168.44" y1="384.34" y2="389.15" class="cls-47"/><g class="cls-31"><polygon points="166.47 383.17 164.72 388.98 164.04 391.21 166.33 371.54 166.47 369.48 166.47 369.77 166.47 383.17"/></g><rect width="2.83" height="2.83" x="167.03" y="346.19" class="cls-30" transform="translate(336.88 695.21) rotate(-180)"/><path d="M175,371.59H161.86V355a6.58,6.58,0,0,1,6.58-6.58h0A6.58,6.58,0,0,1,175,355Z" class="cls-9"/><path id="_Pfad_7" d="M172.56,343a4.12,4.12,0,0,1-8.23,0v-5.06h8.23Z" class="cls-35" data-name="&lt;Pfad&gt;"/><path d="M168.44,347.07a4.1,4.1,0,0,0,1.42-.26v.66a4.06,4.06,0,0,1-2.83,0v-.66A4.1,4.1,0,0,0,168.44,347.07Z" class="cls-31"/><circle id="_Pfad_8" cx="171.06" cy="340.14" r=".4" data-name="&lt;Pfad&gt;"/><path id="_Pfad_9" d="M173.9,335.29h-9.53A1.35,1.35,0,0,0,163,336.6v4.8a1.35,1.35,0,0,0,1.38,1.31h0a4.16,4.16,0,0,0,3.83-2.41,3,3,0,0,1,1.23-1.39,3.69,3.69,0,0,1,1.39-.36,3.35,3.35,0,0,0,3.07-3.25Z" class="cls-48" data-name="&lt;Pfad&gt;"/><ellipse id="_Pfad_10" cx="167.74" cy="341.27" class="cls-35" data-name="&lt;Pfad&gt;" rx="1.03" ry="1.21" transform="translate(-71.82 45.95) rotate(-12.87)"/><g class="cls-31"><path d="M167.74,350.67a1.41,1.41,0,0,1,1.41,1.41v7.55a2,2,0,0,0,2,2H175v2.82h-3.9a4.8,4.8,0,0,1-4.8-4.8v-7.55A1.41,1.41,0,0,1,167.74,350.67Z"/></g><path d="M168.44,350.94v7.55a3.38,3.38,0,0,0,3.38,3.38h10.48" class="cls-49"/><line x1="178.57" x2="181.72" y1="361.87" y2="361.87" class="cls-50"/><line x1="180.83" x2="182.84" y1="361.87" y2="361.87" class="cls-51"/></g></g><g id="paar3"><path d="M391.41,169.24H351.07a1.84,1.84,0,0,0-1.84,1.88v12.42a1.87,1.87,0,0,0,1.84,1.92h31v3.35l2.49-3.35h6.86a2,2,0,0,0,2-1.92V171.13A2,2,0,0,0,391.41,169.24Z" class="cls-25"/><g id="frau-3" data-name="frau"><path d="M371.91,199.88h-2.25a3.1,3.1,0,0,0,2.25,2.7Z" class="cls-38"/><path d="M371.95,201.53c0,1.5-1.62,2.71-3.61,2.71h-.16c-2,0-3.61-1.21-3.61-2.71V200.2c0-1.52,1.64-2.75,3.66-2.75h.06c2,0,3.66,1.23,3.66,2.75Z" class="cls-38"/><ellipse cx="368.46" cy="204.61" class="cls-38" rx="4.05" ry="3.58"/><path d="M371.79,200.31s-4.7-.33-5.34,2.73c-1.64-2.75.7-3.74,2.06-3.52A27.76,27.76,0,0,1,371.79,200.31Z" class="cls-38"/><path d="M371.17,199.65s-5-.33-5.66,2.74c-1.44-3.91,1-3.74,2.38-3.52A27.77,27.77,0,0,1,371.17,199.65Z" class="cls-38"/><line x1="366.64" x2="366.64" y1="224.41" y2="238.47" class="cls-52"/><line x1="366.64" x2="366.64" y1="236.56" y2="240.03" class="cls-53"/><line x1="366.64" x2="366.64" y1="234.93" y2="238.4" class="cls-54"/><line x1="370.02" x2="370.02" y1="224.41" y2="238.47" class="cls-52"/><line x1="370.02" x2="370.02" y1="236.56" y2="240.03" class="cls-53"/><line x1="370.02" x2="370.02" y1="234.93" y2="238.4" class="cls-54"/><rect width="2.04" height="2.04" x="367.31" y="207.39" class="cls-30"/><path d="M368.33,207.93a3,3,0,0,1-1-.18v.48a2.93,2.93,0,0,0,2,0v-.48A3,3,0,0,1,368.33,207.93Z" class="cls-31"/><path d="M362.61,194.4v13.45c0,2,2.75,3.73,6,3.73" class="cls-55"/><line x1="362.61" x2="362.61" y1="193.42" y2="195.38" class="cls-56"/><line x1="362.61" x2="362.61" y1="194.64" y2="205.69" class="cls-57"/><path d="M374.08,194.15v13.45c0,2-2.75,3.73-6,3.73" class="cls-55"/><line x1="374.08" x2="374.08" y1="193.18" y2="195.13" class="cls-56"/><line x1="374.08" x2="374.08" y1="194.4" y2="205.45" class="cls-58"/><path d="M373.08,222.31h-9.5v-8.8a4.75,4.75,0,0,1,4.75-4.75h0a4.75,4.75,0,0,1,4.75,4.75Z" class="cls-15"/><path id="_Pfad_11" d="M371.3,205.05a3,3,0,1,1-5.94,0V201.4h5.94Z" class="cls-35" data-name="&lt;Pfad&gt;"/><path d="M364.9,200.53v1.09a6,6,0,0,0,3.43.84,6.1,6.1,0,0,0,3.39-.81v-1.12Z" class="cls-36"/><ellipse cx="371.3" cy="204.49" class="cls-35" rx=".62" ry=".89"/><ellipse cx="365.17" cy="204.49" class="cls-35" rx=".62" ry=".89"/><circle id="_Pfad_12" cx="369.97" cy="203.02" r=".29" data-name="&lt;Pfad&gt;"/><circle id="_Pfad_13" cx="366.93" cy="203.02" r=".29" data-name="&lt;Pfad&gt;"/><polygon points="375.37 231.44 361.54 231.44 364.54 222.31 372.37 222.31 375.37 231.44" class="cls-14"/></g><g id="mann-2" data-name="mann"><path d="M396.56,249.17v-8.27a1.91,1.91,0,0,0-1.91-1.91H384.59" class="cls-59"/><line x1="396.56" x2="396.56" y1="247.28" y2="250.71" class="cls-60"/><line x1="396.56" x2="396.56" y1="245.67" y2="249.1" class="cls-61"/><path d="M397.4,249.94v-8.27a1.91,1.91,0,0,0-1.91-1.91H385.43" class="cls-62"/><line x1="397.4" x2="397.4" y1="248.06" y2="251.48" class="cls-60"/><line x1="397.4" x2="397.4" y1="246.45" y2="249.87" class="cls-61"/><path d="M397.4,249.94v-8.27a1.91,1.91,0,0,0-1.91-1.91H385.43" class="cls-63"/><line x1="397.4" x2="397.4" y1="248.06" y2="251.48" class="cls-60"/><line x1="397.4" x2="397.4" y1="246.45" y2="249.87" class="cls-61"/><rect width="2.02" height="2.02" x="384.8" y="217.53" class="cls-30" transform="translate(771.62 437.09) rotate(-180)"/><path d="M390.5,235.65h-9.38V223.79a4.69,4.69,0,0,1,4.69-4.69h0a4.69,4.69,0,0,1,4.69,4.69Z" class="cls-14"/><path id="_Pfad_14" d="M388.75,215.23a2.94,2.94,0,0,1-5.87,0v-3.61h5.87Z" class="cls-35" data-name="&lt;Pfad&gt;"/><path d="M385.81,218.16a2.92,2.92,0,0,0,1-.18v.47a2.89,2.89,0,0,1-2,0V218A2.92,2.92,0,0,0,385.81,218.16Z" class="cls-31"/><circle id="_Pfad_15" cx="387.68" cy="213.22" r=".29" data-name="&lt;Pfad&gt;"/><g class="cls-31"><path d="M385.31,220.73a1,1,0,0,1,1,1v5.38a1.41,1.41,0,0,0,1.41,1.41h2.78v2h-2.78a3.42,3.42,0,0,1-3.42-3.42v-5.38A1,1,0,0,1,385.31,220.73Z"/></g><path d="M385.81,220.92v5.38a2.41,2.41,0,0,0,2.41,2.41h7.47" class="cls-64"/><line x1="385.81" x2="385.81" y1="220.92" y2="223.09" class="cls-65"/><line x1="385.81" x2="385.81" y1="222.68" y2="224.84" class="cls-66"/><line x1="393.03" x2="395.28" y1="228.72" y2="228.72" class="cls-67"/><line x1="394.64" x2="396.08" y1="228.72" y2="228.72" class="cls-64"/><path d="M381.12,235.65h6.12a3.26,3.26,0,0,1,3.26,3.26v2.31a0,0,0,0,1,0,0h-9.38a0,0,0,0,1,0,0v-5.57A0,0,0,0,1,381.12,235.65Z" class="cls-20" transform="translate(771.62 476.86) rotate(-180)"/><path d="M389.52,235.65h1.75a4.16,4.16,0,0,1,4.16,4.16v1.4a0,0,0,0,1,0,0h-5.91a0,0,0,0,1,0,0v-5.57A0,0,0,0,1,389.52,235.65Z" class="cls-20"/></g></g><g id="mann-3" data-name="mann"><path d="M230.68,318.39v-9.91A2.29,2.29,0,0,1,233,306.2H245" class="cls-68"/><line x1="230.68" x2="230.68" y1="316.14" y2="320.24" class="cls-69"/><line x1="230.68" x2="230.68" y1="314.21" y2="318.31" class="cls-70"/><path d="M229.68,319.32v-9.91a2.29,2.29,0,0,1,2.29-2.29H244" class="cls-71"/><line x1="229.68" x2="229.68" y1="317.07" y2="321.17" class="cls-69"/><line x1="229.68" x2="229.68" y1="315.14" y2="319.24" class="cls-70"/><path d="M229.68,319.32v-9.91a2.29,2.29,0,0,1,2.29-2.29H244" class="cls-71"/><line x1="229.68" x2="229.68" y1="317.07" y2="321.17" class="cls-69"/><line x1="229.68" x2="229.68" y1="315.14" y2="319.24" class="cls-70"/><rect width="2.42" height="2.42" x="242.35" y="280.5" class="cls-30"/><path d="M237.94,288a5.62,5.62,0,0,1,5.62-5.62h0a5.62,5.62,0,0,1,5.62,5.62V302.2H237.94Z" class="cls-12"/><path id="_Pfad_16" d="M240,277.74a3.52,3.52,0,0,0,7,0v-4.32h-7Z" class="cls-35" data-name="&lt;Pfad&gt;"/><path d="M243.56,281.26a3.5,3.5,0,0,1-1.21-.22v.57a3.46,3.46,0,0,0,2.42,0V281A3.5,3.5,0,0,1,243.56,281.26Z" class="cls-31"/><circle id="_Pfad_17" cx="241.33" cy="275.33" r=".35" data-name="&lt;Pfad&gt;"/><path id="_Pfad_18" d="M238.9,271.19H247a1.15,1.15,0,0,1,1.18,1.12v4.1a1.15,1.15,0,0,1-1.18,1.12h0a3.56,3.56,0,0,1-3.27-2.06,2.52,2.52,0,0,0-1.05-1.19,3.15,3.15,0,0,0-1.18-.31,2.86,2.86,0,0,1-2.63-2.78Z" data-name="&lt;Pfad&gt;"/><ellipse id="_Pfad_19" cx="244.16" cy="276.31" class="cls-35" data-name="&lt;Pfad&gt;" rx="1.04" ry=".88" transform="translate(-79.6 452.77) rotate(-77.13)"/><g class="cls-31"><path d="M244.16,284.33a1.2,1.2,0,0,0-1.2,1.2V292a1.69,1.69,0,0,1-1.69,1.69h-3.33v2.41h3.33a4.1,4.1,0,0,0,4.1-4.1v-6.44A1.2,1.2,0,0,0,244.16,284.33Z"/></g><path d="M243.56,284.56V291a2.89,2.89,0,0,1-2.89,2.89h-9" class="cls-72"/><line x1="243.56" x2="243.56" y1="284.56" y2="287.15" class="cls-73"/><line x1="243.56" x2="243.56" y1="286.67" y2="289.26" class="cls-74"/><line x1="234.91" x2="232.22" y1="293.9" y2="293.9" class="cls-75"/><line x1="232.98" x2="231.26" y1="293.9" y2="293.9" class="cls-72"/><path d="M236.4,301.19h13.1a0,0,0,0,1,0,0v3a4.76,4.76,0,0,1-4.76,4.76h-3.58a4.76,4.76,0,0,1-4.76-4.76v-3A0,0,0,0,1,236.4,301.19Z" class="cls-20"/></g><polygon points="243.04 273.97 243.04 277.42 243.72 276.42 243.72 274.94 243.04 273.97"/><path d="M389.69,209.76c0-.81-1.74-1.46-3.89-1.46A7,7,0,0,0,383,209a1.87,1.87,0,0,0-1.09,1.71h0v3.43a1,1,0,0,0,1,.93h0a3,3,0,0,0,2.73-1.72,2.1,2.1,0,0,1,.88-1,2.63,2.63,0,0,1,1-.26,2.39,2.39,0,0,0,2.19-2.32h0Z"/><circle cx="171.96" cy="335.42" r="1.94" class="cls-48"/><ellipse cx="418.32" cy="472.86" class="cls-17" rx="23.26" ry="4.51"/><line x1="409.76" x2="422.15" y1="422.54" y2="463.67" class="cls-76"/><line x1="420.47" x2="423.53" y1="458.09" y2="468.23" class="cls-77"/><line x1="419.04" x2="422.09" y1="453.32" y2="463.46" class="cls-78"/><line x1="409.76" x2="409.76" y1="422.54" y2="465.49" class="cls-76"/><line x1="409.76" x2="409.76" y1="459.67" y2="470.26" class="cls-77"/><line x1="409.76" x2="409.76" y1="454.69" y2="465.28" class="cls-78"/><g class="cls-31"><polygon points="414.12 452.1 417.98 464.92 419.47 469.83 414.43 426.43 414.12 421.9 414.12 422.54 414.12 452.1"/></g><rect width="6.25" height="6.25" x="406.64" y="370.52" class="cls-30"/><path d="M395.25,389.89a14.51,14.51,0,0,1,14.51-14.51h0a14.51,14.51,0,0,1,14.51,14.51v36.67h-29Z" class="cls-20"/><path id="_Pfad_20" d="M400.68,363.38a9.08,9.08,0,1,0,18.16,0V352.21H400.68Z" class="cls-35" data-name="&lt;Pfad&gt;"/><path d="M409.76,372.46a9,9,0,0,1-3.12-.56v1.46a8.95,8.95,0,0,0,6.25,0V371.9A9,9,0,0,1,409.76,372.46Z" class="cls-31"/><circle id="_Pfad_21" cx="403.99" cy="357.16" r=".89" data-name="&lt;Pfad&gt;"/><ellipse id="_Pfad_22" cx="411.31" cy="359.68" class="cls-35" data-name="&lt;Pfad&gt;" rx="2.68" ry="2.27" transform="translate(-30.96 680.51) rotate(-77.13)"/><path d="M418.75,346.47H407.68a6.63,6.63,0,0,1-6.7-3.85v2.62c-2.42-1-3.37-4.13-3.37-4.13v3.61c-.08,2.94.4,3.81.4,3.81h0a7.54,7.54,0,0,0,6.46,5.11,8.13,8.13,0,0,1,3.06.8,6.5,6.5,0,0,1,2.72,3.06,9.19,9.19,0,0,0,8.46,5.33h0a3,3,0,0,0,3.05-2.89v-10.6A3,3,0,0,0,418.75,346.47Z"/><g class="cls-31"><path d="M411.32,380.4a3.11,3.11,0,0,0-3.11,3.11v16.65a4.36,4.36,0,0,1-4.36,4.36h-8.6v6.22h8.6a10.59,10.59,0,0,0,10.58-10.58V383.51A3.11,3.11,0,0,0,411.32,380.4Z"/></g><path d="M409.76,381v16.65a7.47,7.47,0,0,1-7.47,7.47H379.18" class="cls-79"/><line x1="387.42" x2="380.48" y1="405.12" y2="405.12" class="cls-80"/><line x1="382.44" x2="377.99" y1="405.12" y2="405.12" class="cls-81"/></g><g id="berater"><g class="cls-17"><ellipse cx="1026.45" cy="431.71" rx="7.56" ry="1.46"/></g><rect width="5.29" height="18.35" x="1023.65" y="409.61" class="cls-82" transform="translate(-77.18 313.84) rotate(-16.77)"/><path d="M1029.52,432.17a2.65,2.65,0,0,1-2.53-1.88l-1.31-4.33a2.64,2.64,0,0,1,5.06-1.53l1.31,4.33a2.65,2.65,0,0,1-2.53,3.41Z" class="cls-83"/><rect width="5.29" height="4.99" x="1025.62" y="422.58" class="cls-83" transform="translate(-75.38 283.68) rotate(-15.16)"/><rect width="5.29" height="18.35" x="1021" y="410" class="cls-82"/><path d="M1023.64,433a2.64,2.64,0,0,1-2.64-2.64v-4.53a2.64,2.64,0,1,1,5.29,0v4.53A2.64,2.64,0,0,1,1023.64,433Z" class="cls-83"/><rect width="5.29" height="5.04" x="1021" y="423.22" class="cls-83"/><g class="cls-31"><polygon points="1025.51 422.63 1027.16 428.11 1027.79 430.21 1025.64 411.66 1025.51 409.73 1025.51 410 1025.51 422.63"/></g><rect width="2.67" height="2.67" x="1022.31" y="387.77" class="cls-30"/><path d="M1017.44,396a6.2,6.2,0,0,1,6.2-6.2h0a6.2,6.2,0,0,1,6.2,6.2v15.67h-12.4Z" class="cls-84"/><g id="_Gruppe_" data-name="&lt;Gruppe&gt;"><path d="M1019.76,384.72a3.88,3.88,0,1,0,7.76,0v-4.77h-7.76Z" class="cls-35"/></g><g id="_Gruppe_2" data-name="&lt;Gruppe&gt;"><path d="M1019.76,384.72a3.88,3.88,0,1,0,7.76,0v-4.77h-7.76Z" class="cls-35"/></g><path d="M1020.8,387.32a2.59,2.59,0,0,0,1.84-.76" class="cls-1"/><g class="cls-31"><path d="M1023.64,388.6a3.87,3.87,0,0,1-1.34-.24V389a3.82,3.82,0,0,0,2.67,0v-.63A3.87,3.87,0,0,1,1023.64,388.6Z"/></g><g id="_Gruppe_3" data-name="&lt;Gruppe&gt;"><circle cx="1021.18" cy="382.06" r=".38"/></g><g id="_Gruppe_4" data-name="&lt;Gruppe&gt;"><path d="M1018.5,377.49h9a1.27,1.27,0,0,1,1.3,1.23v4.53a1.27,1.27,0,0,1-1.3,1.23h0a3.93,3.93,0,0,1-3.61-2.28,2.78,2.78,0,0,0-1.16-1.31,3.48,3.48,0,0,0-1.31-.34,3.15,3.15,0,0,1-2.9-3.06Z" class="cls-48"/></g><g id="_Gruppe_5" data-name="&lt;Gruppe&gt;"><ellipse cx="1024.3" cy="383.13" class="cls-35" rx="1.15" ry=".97" transform="translate(422.59 1296.33) rotate(-77.13)"/></g><g class="cls-31"><path d="M1024.31,392a1.33,1.33,0,0,0-1.33,1.33v7.11a1.86,1.86,0,0,1-1.86,1.86h-3.67V405h3.67a4.53,4.53,0,0,0,4.52-4.52v-7.11A1.33,1.33,0,0,0,1024.31,392Z"/></g><path d="M1020.45,404.44h-9.88a1.89,1.89,0,0,1,0-3.78h9.88a1.3,1.3,0,0,0,1.3-1.3v-7.11a1.89,1.89,0,0,1,3.78,0v7.11A5.09,5.09,0,0,1,1020.45,404.44Z" class="cls-85"/><rect width="2.97" height="3.78" x="1011.13" y="400.67" class="cls-35"/><path d="M1012,404.44h-1.9a1.89,1.89,0,0,1,0-3.78h1.9a1.89,1.89,0,0,1,0,3.78Z" class="cls-35"/><g class="cls-17"><ellipse cx="997.03" cy="431.71" rx="7.56" ry="1.46"/></g><rect width="5.29" height="18.35" x="991.39" y="410" class="cls-20"/><path d="M994,433a2.64,2.64,0,0,1-2.64-2.64v-4.53a2.64,2.64,0,0,1,5.29,0v4.53A2.64,2.64,0,0,1,994,433Z" class="cls-83"/><rect width="5.29" height="5.04" x="991.39" y="423.22" class="cls-83"/><rect width="5.29" height="18.35" x="997.35" y="410" class="cls-20"/><path d="M1000,433a2.64,2.64,0,0,1-2.64-2.64v-4.53a2.64,2.64,0,0,1,5.29,0v4.53A2.64,2.64,0,0,1,1000,433Z" class="cls-83"/><rect width="5.29" height="5.04" x="997.35" y="423.22" class="cls-83"/><rect width="2.67" height="2.67" x="995.68" y="387.77" class="cls-30"/><g class="cls-31"><path d="M997,388.48a3.87,3.87,0,0,1-1.34-.24v.63a3.82,3.82,0,0,0,2.67,0v-.63A3.87,3.87,0,0,1,997,388.48Z"/></g><path d="M989.54,415.22a1.89,1.89,0,0,1-1.89-1.89V395.76c0-3.73,4.37-6.76,9.74-6.76a1.89,1.89,0,0,1,0,3.78c-3.58,0-6,1.8-6,3v17.57A1.89,1.89,0,0,1,989.54,415.22Z" class="cls-20"/><path d="M989.54,416.5a1.89,1.89,0,0,1-1.89-1.89v-2.56a1.89,1.89,0,0,1,3.78,0v2.56A1.89,1.89,0,0,1,989.54,416.5Z" class="cls-35"/><rect width="3.78" height="14.43" x="987.65" y="398.58" class="cls-35"/><path d="M1004.52,415.22a1.89,1.89,0,0,1-1.89-1.89V395.76c0-1.19-2.38-3-6-3a1.89,1.89,0,0,1,0-3.78c5.37,0,9.74,3,9.74,6.76v17.57A1.89,1.89,0,0,1,1004.52,415.22Z" class="cls-20"/><path d="M1004.52,416.5a1.89,1.89,0,0,1-1.89-1.89v-2.56a1.89,1.89,0,1,1,3.78,0v2.56A1.89,1.89,0,0,1,1004.52,416.5Z" class="cls-35"/><rect width="3.78" height="14.43" x="1002.63" y="398.58" class="cls-35"/><path d="M1003.21,411.43h-12.4V395.76a6.2,6.2,0,0,1,6.2-6.2h0a6.2,6.2,0,0,1,6.2,6.2Z" class="cls-15"/><path d="M992.54,379.62V384a1.13,1.13,0,0,0,1.13,1.13h6.69a1.13,1.13,0,0,0,1.13-1.13v-4.38Z"/><g id="_Gruppe_6" data-name="&lt;Gruppe&gt;"><path d="M1000.89,384.72a3.88,3.88,0,1,1-7.76,0v-4.77h7.76Z" class="cls-35"/></g><g id="_Gruppe_7" data-name="&lt;Gruppe&gt;"><path d="M1000.89,384.72a3.88,3.88,0,1,1-7.76,0v-4.77h7.76Z" class="cls-35"/></g><path d="M997,387.32a2.6,2.6,0,0,1-2.6-2.6" class="cls-1"/><g class="cls-31"><path d="M992.54,378.81v1.42a7.82,7.82,0,0,0,4.47,1.1,8,8,0,0,0,4.43-1.06v-1.46Z" class="cls-86"/></g><ellipse cx="1000.89" cy="383.98" class="cls-35" rx=".81" ry="1.17"/><ellipse cx="992.89" cy="383.98" class="cls-35" rx=".81" ry="1.17"/><g id="_Gruppe_8" data-name="&lt;Gruppe&gt;"><circle cx="999.16" cy="382.06" r=".38"/></g><g id="_Gruppe_9" data-name="&lt;Gruppe&gt;"><circle cx="995.19" cy="382.06" r=".38"/></g><path d="M1001.49,379.77v-.24a1.13,1.13,0,0,0-1-1.12l-3.5-.49-3.5.49a1.13,1.13,0,0,0-1,1.12v.24Z"/><path d="M997,379.36h-4.42v1.07a9.12,9.12,0,0,1,4.37,0v0H997v0a9,9,0,0,1,4.52.17v-1.07Z"/><rect width="12.05" height="1.36" x="990.99" y="378.23" class="cls-87"/><path d="M997,380.73c2.76,0,5-.89,5-2H992C992,379.84,994.25,380.73,997,380.73Z" class="cls-88"/><path d="M997,373.18a5.78,5.78,0,0,0-5.78,5.78h11.55A5.78,5.78,0,0,0,997,373.18Z" class="cls-4"/><rect width="12.05" height=".74" x="990.99" y="378.21" class="cls-20"/><g class="cls-89"><g class="cls-17"><path d="M992.47,377.63h-.09a.3.3,0,0,1-.19-.37,4.93,4.93,0,0,1,3-3.14.3.3,0,1,1,.2.56,4.34,4.34,0,0,0-2.68,2.76A.3.3,0,0,1,992.47,377.63Z" class="cls-90"/></g></g><path d="M999.71,375.55h-4.9a.22.22,0,0,0-.22.23v1.51a.23.23,0,0,0,.22.23h3.76v.41l.3-.41h.83a.24.24,0,0,0,.24-.23v-1.51A.24.24,0,0,0,999.71,375.55Z" class="cls-25"/><path d="M995.3,375.88l-.39.94h.18l.08-.19h.42l.08.19h.18l-.39-.94Zm-.08.61.16-.38.16.38Z" class="cls-91"/><path d="M996.29,375.88h-.36v.94h.17v-.33h.19a.3.3,0,1,0,0-.61Zm0,.46h-.18V376h.18a.15.15,0,0,1,0,.31Z" class="cls-91"/><path d="M996.87,376.48h.19a.3.3,0,1,0,0-.61h-.36v.94h.17Zm0-.46h.18a.15.15,0,0,1,0,.31h-.18Z" class="cls-91"/><path d="M998.22,375.88h-.17v.56c0,.17-.08.24-.21.24s-.21-.07-.21-.24v-.56h-.17v.58a.38.38,0,0,0,.76,0Z" class="cls-91"/><rect width=".16" height=".68" x="998.37" y="376.14" class="cls-91"/><circle cx="998.45" cy="375.96" r=".1" class="cls-91"/><path d="M999.14,376.83a.49.49,0,1,0-.5-.49A.49.49,0,0,0,999.14,376.83Zm0-.82a.33.33,0,1,1-.33.34A.33.33,0,0,1,999.14,376Z" class="cls-91"/><path d="M994.92,377.13a.06.06,0,0,0,.06,0s0,0,0,0,0,0,0,0-.06,0-.06-.07A.06.06,0,0,1,995,377a.08.08,0,0,1,.07,0l0,0,0,0s0,0,0,0,0,0,.05,0,.06,0,.06.07,0,.07-.08.07a.09.09,0,0,1-.09-.05Z" class="cls-91"/><path d="M995.07,377h0l0,.15,0-.15h0l0,.15,0-.15h0l-.07.22h0l0-.15,0,.15h0Z" class="cls-91"/><path d="M995.4,377h0v.22h0Z" class="cls-91"/><path d="M995.5,377.13a.06.06,0,0,0,.06,0s0,0,0,0,0,0,0,0-.06,0-.06-.07a.06.06,0,0,1,.07-.06.08.08,0,0,1,.07,0l0,0,0,0s0,0,0,0,0,0,.05,0,.06,0,.06.07,0,.07-.08.07a.09.09,0,0,1-.09-.05Z" class="cls-91"/><path d="M995.69,377.13a.06.06,0,0,0,.06,0s0,0,0,0,0,0,0,0-.06,0-.06-.07a.06.06,0,0,1,.07-.06.08.08,0,0,1,.07,0l0,0,0,0s0,0,0,0,0,0,.05,0,.06,0,.06.07,0,.07-.08.07a.09.09,0,0,1-.09-.05Z" class="cls-91"/><path d="M996.11,377a.12.12,0,0,1,.09,0l0,0a.08.08,0,0,0-.06,0,.08.08,0,0,0,0,.16.08.08,0,0,0,.06,0l0,0a.12.12,0,1,1-.09-.19Z" class="cls-91"/><path d="M996.33,377a.12.12,0,1,1-.12.12A.12.12,0,0,1,996.33,377Zm0,.2a.08.08,0,1,0-.08-.08A.08.08,0,0,0,996.33,377.17Z" class="cls-91"/><path d="M996.49,377h0l.12.16V377h0v.22h0l-.12-.16v.16h0Z" class="cls-91"/><path d="M996.78,377h-.06v0h.16v0h-.06v.19h0Z" class="cls-91"/><path d="M997,377h0l.09.22h0l0,0h-.1l0,0h0Zm.05.15,0-.09,0,.09Z" class="cls-91"/><path d="M997.13,377h0v.22h0Z" class="cls-91"/><path d="M997.22,377h0l.12.16V377h0v.22h0l-.12-.16v.16h0Z" class="cls-91"/><path d="M997.47,377h.14v0h-.1v.05h.1v0h-.1v.06h.1v0h-.14Z" class="cls-91"/><path d="M997.66,377h.09a.07.07,0,0,1,.07.07.07.07,0,0,1,0,.06l.05.09h0l0-.08h0v.08h0Zm.08.11a0,0,0,0,0,0,0,0,0,0,0,0,0,0h0v.07Z" class="cls-91"/><path d="M998,377h.09a.07.07,0,1,1,0,.15h0v.08h0Zm.08.11a0,0,0,0,0,0-.07h0v.07Z" class="cls-91"/><path d="M998.2,377h0v.19h.09v0h-.13Z" class="cls-91"/><path d="M998.44,377h0l.09.22h0l0,0h-.1l0,0h0Zm.05.15,0-.09,0,.09Z" class="cls-91"/><path d="M998.62,377h-.06v0h.16v0h-.06v.19h0Z" class="cls-91"/><path d="M998.76,377h.14v0h-.1v.06h.09v0h-.09v.09h0Z" class="cls-91"/><path d="M999,377a.12.12,0,1,1-.12.12A.12.12,0,0,1,999,377Zm0,.2a.08.08,0,1,0-.08-.08A.08.08,0,0,0,999,377.17Z" class="cls-91"/><path d="M999.2,377h.09a.07.07,0,0,1,.07.07.07.07,0,0,1,0,.06l.05.09h0l0-.08h0v.08h0Zm.08.11a0,0,0,0,0,0,0,0,0,0,0,0,0,0h0v.07Z" class="cls-91"/><path d="M999.4,377h0l.08.13.08-.13h0v.22h0V377l-.08.12-.08-.12v.15h0Z" class="cls-91"/></g><g id="openshift"><rect width="51.33" height="51.33" x="121.25" y="234.61" class="cls-90"/><rect width="11.27" height="51.33" x="121.25" y="234.61" class="cls-92"/><polygon points="159.6 455.29 119.8 455.29 119.8 443.33 159.6 455.29" class="cls-17"/><rect width="5.4" height="226.51" x="114.95" y="228.78" class="cls-93"/><rect width="2.7" height="226.51" x="117.65" y="228.78" class="cls-94"/><rect width="7.2" height="58.08" x="114.05" y="231.24" class="cls-95"/><rect width="3.6" height="58.08" x="117.65" y="231.24" class="cls-84"/><path d="M140,254.8l-5.22,1.9a15.16,15.16,0,0,0,.41,2.47l5-1.8a9.69,9.69,0,0,1-.15-2.57" class="cls-96"/><path d="M163,249a14.89,14.89,0,0,0-1.27-2.16l-5.21,1.9a9.72,9.72,0,0,1,1.53,2.06Z" class="cls-96"/><path d="M151.52,247.56a9.64,9.64,0,0,1,2.82,2l5.21-1.9a14.9,14.9,0,0,0-27,9.82l5.21-1.9a9.66,9.66,0,0,1,13.75-8" class="cls-96"/><path d="M135.47,259.05l-5,1.8a15.1,15.1,0,0,0,2.33,5.05l5.2-1.89a9.74,9.74,0,0,1-2.58-5" class="cls-96"/><path d="M157.09,257.09a9.56,9.56,0,0,1-.87,3.35,9.7,9.7,0,0,1-12.88,4.69,9.59,9.59,0,0,1-2.82-2l-5.2,1.89a14.9,14.9,0,0,0,27-9.82Z" class="cls-96"/><path d="M158.37,250.72l-5,1.8a9.73,9.73,0,0,1,1.21,5.46l5.2-1.89a15,15,0,0,0-1.46-5.37" class="cls-96"/><path d="M130.6,276.89c-.65,0-1.08.52-1.08,1.46s.45,1.48,1.1,1.48,1.08-.52,1.08-1.46-.45-1.48-1.1-1.48m0,3.86c-1.21,0-2-.89-2-2.38s.84-2.39,2.05-2.39,2,.89,2,2.38-.84,2.39-2,2.39" class="cls-97"/><path d="M135.65,276.95h-1.07v1.19h1.08c.43,0,.66-.2.66-.6s-.26-.59-.67-.59m0,2.09h-1v1.64h-.93V276h2a1.44,1.44,0,0,1,1.59,1.47c0,1.07-.71,1.52-1.67,1.52" class="cls-97"/><polygon points="138.24 280.68 138.24 276.05 141.45 276.05 141.45 276.95 139.16 276.95 139.16 277.75 140.5 277.75 140.5 278.65 139.16 278.65 139.16 279.77 141.55 279.77 141.55 280.68 138.24 280.68" class="cls-97"/><path d="M145.54,280.68l-1.7-2.53c-.11-.17-.26-.4-.32-.52,0,.17,0,.75,0,1v2h-.91V276h.89l1.64,2.45c.11.17.26.4.32.52,0-.17,0-.75,0-1v-2h.91v4.63h-.83Z" class="cls-97"/><path d="M149.19,280.75a2.21,2.21,0,0,1-1.55-.64l.34-.38a1.76,1.76,0,0,0,1.23.56c.62,0,1-.3,1-.79s-.26-.67-1.1-1c-1-.36-1.34-.68-1.34-1.35s.58-1.18,1.45-1.18a2.07,2.07,0,0,1,1.41.5l-.33.4a1.61,1.61,0,0,0-1.11-.43c-.64,0-.9.32-.9.68s.17.6,1.1.93,1.34.71,1.34,1.4-.57,1.29-1.54,1.29" class="cls-97"/><polygon points="154.69 280.68 154.69 278.49 152.39 278.49 152.39 280.68 151.87 280.68 151.87 276.05 152.39 276.05 152.39 278.02 154.69 278.02 154.69 276.05 155.2 276.05 155.2 280.68 154.69 280.68" class="cls-97"/><rect width=".52" height="4.63" x="156.53" y="276.05" class="cls-97"/><polygon points="158.89 276.51 158.89 278.05 160.16 278.05 160.16 278.52 158.89 278.52 158.89 280.68 158.38 280.68 158.38 276.05 161.09 276.05 161.09 276.51 158.89 276.51" class="cls-97"/><polygon points="162.02 276.05 162.02 276.51 163.38 276.51 163.38 280.68 163.9 280.68 163.9 276.51 165.26 276.51 165.26 276.05 162.02 276.05" class="cls-97"/></g><g id="Ebene_1" data-name="Ebene 1"><g class="cls-98"><path d="M89.9,109.9a46,46,0,0,1,65,0l.44.44q.9-1.1,1.93-2.13.53-.53,1.08-1a30.59,30.59,0,0,1,51.82,14.33,16.75,16.75,0,1,1-10.51,30.65,30.59,30.59,0,0,1-32.83,3.7l-.43-.17A46,46,0,1,1,89.9,109.9" class="cls-99"/><path d="M67.25,187.37a40.28,40.28,0,1,0,25.62-46,30.53,30.53,0,0,0-52.67.14A37,37,0,0,0,30.37,124a37.12,37.12,0,0,0-52.52,0,37.19,37.19,0,0,0,0,52.56,37.16,37.16,0,0,0,59.73-10.16,30.54,30.54,0,0,0,29.67,21" class="cls-99"/></g></g><g id="clouds_right" data-name="clouds right"><g class="cls-100"><path d="M1212.94,106.15A85.81,85.81,0,1,0,1267.53,8a65,65,0,0,0-112.2.3A79.16,79.16,0,1,0,1022.48,83a79.14,79.14,0,0,0,127.25-21.65,65.07,65.07,0,0,0,63.2,44.79Z" class="cls-99"/><path d="M764.84-5.58a37,37,0,0,0-10.69-29.79,37.08,37.08,0,0,0-52.45,0,37.12,37.12,0,0,0,0,52.48,37.09,37.09,0,0,0,47.71,4,43.82,43.82,0,0,0,86.16,16,51.46,51.46,0,0,0,49.73,5.13A81,81,0,1,0,1020-38.45a80.91,80.91,0,0,0-114.47,0l-.77.78q-1.59-1.94-3.4-3.75a51.39,51.39,0,0,0-72.7,0A51.23,51.23,0,0,0,813.87-10a43.6,43.6,0,0,0-21.24-5.49q-1.68,0-3.33.13a27,27,0,0,0-21.6,7.66Q766.22-6.72,764.84-5.58Z" class="cls-99"/></g></g></g></svg>