<svg xmlns="http://www.w3.org/2000/svg" xmlns:xlink="http://www.w3.org/1999/xlink" width="124" height="124" version="1.1" viewBox="0 0 124 124"><title>icons swissness</title><desc>Created with Sketch.</desc><g id="Pages" fill="none" fill-rule="evenodd" stroke="none" stroke-width="1"><g id="16:9-copy-5" transform="translate(-131.000000, -366.000000)"><g id="icons-swissness"><g transform="translate(131.000000, 366.000000)"><path id="circle" fill="#002F47" d="M62,0 C96.2416142,0 124,27.7583858 124,62 C124,96.2416142 96.2416142,124 62,124 C27.7583858,124 0,96.2416142 0,62 C0,27.7583858 27.7583858,0 62,0 Z"/><g id="icon" stroke="#FFF" stroke-width="2" transform="translate(32.000000, 25.000000)"><path id="Stroke-1" d="M0.974748718,8.94099487 L30.295159,0.0178153846 L59.6175179,8.94099487 L59.6175179,25.514841 C59.6175179,45.8964821 48.3246974,64.5944308 30.295159,74.0846872 C12.2597744,64.5944308 0.974748718,45.8964821 0.974748718,25.514841 L0.974748718,8.94099487 Z"/><polygon id="Stroke-3" points="43.937 32.818 34.531 32.818 34.531 23.41 26.063 23.41 26.063 32.818 16.655 32.818 16.655 41.286 26.063 41.286 26.063 50.692 34.531 50.692 34.531 41.286 43.937 41.286"/></g></g></g></g></g></svg>