<svg xmlns="http://www.w3.org/2000/svg" xmlns:xlink="http://www.w3.org/1999/xlink" width="124" height="124" version="1.1" viewBox="0 0 124 124"><title>icon hybrid cloud</title><desc>Created with Sketch.</desc><g id="Pages" fill="none" fill-rule="evenodd" stroke="none" stroke-width="1"><g id="16:9-copy-5" transform="translate(-999.000000, -366.000000)"><g id="icon-hybrid-cloud-"><g transform="translate(999.000000, 366.000000)"><path id="circle" fill="#002F47" d="M62,0 C96.2416142,0 124,27.7583858 124,62 C124,96.2416142 96.2416142,124 62,124 C27.7583858,124 0,96.2416142 0,62 C0,27.7583858 27.7583858,0 62,0 Z"/><g id="icon" stroke="#FFF" stroke-width="2" transform="translate(17.000000, 36.000000)"><path id="Stroke-1" d="M36.4468929,11.8292615 C34.5426071,11.1198769 32.4633929,10.7272615 30.2845357,10.7272615 C26.8036786,10.7272615 23.57525,11.7244154 20.9070357,13.4309538 C16.9235357,15.9784923 14.1933214,20.1098769 13.7548929,24.8480308 C6.09789286,25.5217231 0.106035714,31.5247231 0.106035714,38.8349538 C0.106035714,46.6002615 6.86182143,52.8910308 15.1963929,52.8910308 L48.39075,52.8910308 C55.05575,52.8910308 60.4608214,47.8584154 60.4608214,41.6479538 C60.4608214,37.7887231 58.3661071,34.3801077 55.1819643,32.3545692 C56.4396786,29.6620308 56.0566071,26.8311846 54.6084643,24.6182615"/><g id="Group-11" transform="translate(33.214286, 0.237631)"><path id="Stroke-3" d="M6.85451429,33.2196077 L6.85451429,25.7688385 C6.85451429,18.9092231 12.3680857,13.3546077 19.1792286,13.3546077 L24.9319429,13.3546077"/><polyline id="Stroke-5" points="13.427 26.597 6.855 33.22 .281 26.597"/><polyline id="Stroke-7" points="20.001 8.387 24.932 13.355 20.001 18.319"/><path id="Stroke-9" d="M28.0124571,26.5971231 L47.1527429,26.5971231 C47.1527429,26.5971231 56.1538143,25.4862 56.1538143,17.1386615 C56.1538143,11.8428154 51.5348143,7.49504615 45.7909571,7.69358462 C43.5478857,3.20750769 38.7340286,0.108969231 33.1473857,0.108969231 C30.2488857,0.108969231 27.5607429,0.936584615 25.3331714,2.36650769"/></g></g></g></g></g></g></svg>