<svg xmlns="http://www.w3.org/2000/svg" xmlns:xlink="http://www.w3.org/1999/xlink" width="124" height="124" version="1.1" viewBox="0 0 124 124"><title>icon sicherheit</title><desc>Created with Sketch.</desc><g id="Pages" fill="none" fill-rule="evenodd" stroke="none" stroke-width="1"><g id="16:9-copy-5" transform="translate(-348.000000, -366.000000)"><g id="icon-sicherheit"><g transform="translate(348.000000, 366.000000)"><path id="circle" fill="#002F47" d="M62,0 C96.2416142,0 124,27.7583858 124,62 C124,96.2416142 96.2416142,124 62,124 C27.7583858,124 0,96.2416142 0,62 C0,27.7583858 27.7583858,0 62,0 Z"/><g id="icon" stroke="#FFF" stroke-width="2" transform="translate(32.000000, 25.000000)"><polyline id="Stroke-1" points="47.52 21.793 23.762 43.967 15.842 36.047"/><path id="Stroke-2" d="M0.000200000002,9.2034 L30.0942,0.0454 L60.1862,9.2034 L60.1862,26.2134 C60.1862,47.1294 48.5962,66.3214 30.0942,76.0614 C11.5822,66.3214 0.000200000002,47.1294 0.000200000002,26.2134 L0.000200000002,9.2034 Z"/></g></g></g></g></g></svg>