<svg xmlns="http://www.w3.org/2000/svg" xmlns:xlink="http://www.w3.org/1999/xlink" width="263" height="165" version="1.1" viewBox="0 0 263 165"><title>E82CF355-C8F2-454A-B46B-24D6903BF498</title><desc>Created with sketchtool.</desc><defs><linearGradient id="linearGradient-1" x1="-14.502%" x2="-14.502%" y1="0%" y2="39.806%"><stop offset="0%" stop-color="#050505" stop-opacity=".5"/><stop offset="100%" stop-color="#020202" stop-opacity="0"/></linearGradient></defs><g id="Page-1" fill="none" fill-rule="evenodd" stroke="none" stroke-width="1"><g id="Angebot-2" transform="translate(-204.000000, -178.000000)"><g id="icon-angebot-2" transform="translate(205.000000, 179.000000)"><polygon id="shadow" fill="url(#linearGradient-1)" points="2.51 75.44 291.271 364.201 291.051 193.322 128.979 31.251"/><path id="Fill-2" fill="#002F47" d="M140.785714,55.5802143 C140.785714,38.4594796 126.646061,24.374949 109.078388,25.0289694 C102.210429,10.5407041 87.4897551,0.490540816 70.3928571,0.490540816 C47.5855714,0.490540816 29.0018571,18.3025408 27.6729592,40.7612143 C13.3932653,37.7860918 0,48.6571327 0,63.2318061 C0,86.5530714 24.4847959,86.1850918 24.4847959,86.1850918 L113.240878,86.1850918 C113.240878,86.1850918 140.785714,82.5991531 140.785714,55.5802143"/><path id="Stroke-4" stroke="#FF931E" stroke-linejoin="round" stroke-width="2" d="M140.785714,55.5802143 C140.785714,38.4594796 126.646061,24.374949 109.078388,25.0289694 C102.210429,10.5407041 87.4897551,0.490540816 70.3928571,0.490540816 C47.5855714,0.490540816 29.0018571,18.3025408 27.6729592,40.7612143 C13.3932653,37.7860918 0,48.6571327 0,63.2318061 C0,86.5530714 24.4847959,86.1850918 24.4847959,86.1850918 L113.240878,86.1850918 C113.240878,86.1850918 140.785714,82.5991531 140.785714,55.5802143 L140.785714,55.5802143 Z"/></g></g></g></svg>