<svg xmlns="http://www.w3.org/2000/svg" xmlns:xlink="http://www.w3.org/1999/xlink" width="584" height="951" version="1.1" viewBox="0 0 584 951"><title>46DC2898-3F23-4DD7-B76B-C90AA08C6AC0</title><desc>Created with sketchtool.</desc><defs><rect id="path-1" width="584" height="950.732" x="0" y="0" rx="4.028"/><linearGradient id="linearGradient-3" x1="50%" x2="50%" y1="0%" y2="100%"><stop offset="0%" stop-color="#050505" stop-opacity=".5"/><stop offset="100%" stop-color="#020202" stop-opacity=".1"/></linearGradient></defs><g id="Page-1" fill="none" fill-rule="evenodd" stroke="none" stroke-width="1"><g id="Assets" transform="translate(-1324.000000, -1919.000000)"><g id="icon-angebot-3" transform="translate(1324.000000, 1919.000000)"><mask id="mask-2" fill="#fff"><use xlink:href="#path-1"/></mask><g transform="translate(193.324138, 258.898305)"><polygon id="shadow" fill="url(#linearGradient-3)" points="105.892 74.465 2.862 179.487 389.69 566.517 388.653 215.002 175.851 2.091"/><g id="icon" transform="translate(0.000000, 0.349936)"><path id="Fill-2" fill="#002F47" d="M64.7291503,26.5699729 L151.034281,26.5699729 L64.7291503,26.5699729 Z M64.7291503,43.8390852 L151.034281,43.8390852 L64.7291503,43.8390852 Z M181.241178,52.4746487 C181.241178,57.2336784 177.38275,61.1102123 172.610061,61.1102123 L8.63091586,61.1102123 C3.85822621,61.1102123 -0.000201379309,57.2336784 -0.000201379309,52.4746487 L-0.000201379309,9.30086059 C-0.000201379309,4.52571229 3.85822621,0.665297034 8.63091586,0.665297034 L172.610061,0.665297034 C177.38275,0.665297034 181.241178,4.52571229 181.241178,9.30086059 L181.241178,52.4746487 Z"/><path id="Stroke-4" stroke="#929031" stroke-linejoin="round" stroke-width="4.028" d="M64.7291503,26.5699729 L151.034281,26.5699729 L64.7291503,26.5699729 Z M64.7291503,43.8390852 L151.034281,43.8390852 L64.7291503,43.8390852 Z M181.241178,52.4746487 C181.241178,57.2336784 177.38275,61.1102123 172.610061,61.1102123 L8.63091586,61.1102123 C3.85822621,61.1102123 -0.000201379309,57.2336784 -0.000201379309,52.4746487 L-0.000201379309,9.30086059 C-0.000201379309,4.52571229 3.85822621,0.665297034 8.63091586,0.665297034 L172.610061,0.665297034 C177.38275,0.665297034 181.241178,4.52571229 181.241178,9.30086059 L181.241178,52.4746487 L181.241178,52.4746487 Z"/><path id="Fill-6" fill="#002F47" d="M30.2068966,22.2523926 C34.9735448,22.2523926 38.8380138,26.1188523 38.8380138,30.8879561 C38.8380138,35.65706 34.9735448,39.5215049 30.2068966,39.5215049 C25.4402483,39.5215049 21.5757793,35.65706 21.5757793,30.8879561 C21.5757793,26.1188523 25.4402483,22.2523926 30.2068966,22.2523926"/><path id="Stroke-8" stroke="#929031" stroke-linejoin="round" stroke-width="4.028" d="M30.2068966,22.2523926 C34.9735448,22.2523926 38.8380138,26.1188523 38.8380138,30.8879561 C38.8380138,35.65706 34.9735448,39.5215049 30.2068966,39.5215049 C25.4402483,39.5215049 21.5757793,35.65706 21.5757793,30.8879561 C21.5757793,26.1188523 25.4402483,22.2523926 30.2068966,22.2523926 L30.2068966,22.2523926 Z"/><path id="Fill-10" fill="#002F47" d="M64.7291503,87.0146867 L151.034281,87.0146867 L64.7291503,87.0146867 Z M64.7291503,104.283799 L151.034281,104.283799 L64.7291503,104.283799 Z M181.241178,112.919363 C181.241178,117.678392 177.38275,121.554926 172.610061,121.554926 L8.63091586,121.554926 C3.85822621,121.554926 -0.000201379309,117.678392 -0.000201379309,112.919363 L-0.000201379309,69.7455744 C-0.000201379309,64.9704261 3.85822621,61.1100108 8.63091586,61.1100108 L172.610061,61.1100108 C177.38275,61.1100108 181.241178,64.9704261 181.241178,69.7455744 L181.241178,112.919363 Z"/><path id="Stroke-12" stroke="#929031" stroke-linejoin="round" stroke-width="4.028" d="M64.7291503,87.0146867 L151.034281,87.0146867 L64.7291503,87.0146867 Z M64.7291503,104.283799 L151.034281,104.283799 L64.7291503,104.283799 Z M181.241178,112.919363 C181.241178,117.678392 177.38275,121.554926 172.610061,121.554926 L8.63091586,121.554926 C3.85822621,121.554926 -0.000201379309,117.678392 -0.000201379309,112.919363 L-0.000201379309,69.7455744 C-0.000201379309,64.9704261 3.85822621,61.1100108 8.63091586,61.1100108 L172.610061,61.1100108 C177.38275,61.1100108 181.241178,64.9704261 181.241178,69.7455744 L181.241178,112.919363 L181.241178,112.919363 Z"/><path id="Fill-14" fill="#002F47" d="M30.2068966,82.6973078 C34.9735448,82.6973078 38.8380138,86.5637676 38.8380138,91.3328714 C38.8380138,96.1019752 34.9735448,99.9664201 30.2068966,99.9664201 C25.4402483,99.9664201 21.5757793,96.1019752 21.5757793,91.3328714 C21.5757793,86.5637676 25.4402483,82.6973078 30.2068966,82.6973078"/><path id="Stroke-16" stroke="#929031" stroke-linejoin="round" stroke-width="4.028" d="M30.2068966,82.6973078 C34.9735448,82.6973078 38.8380138,86.5637676 38.8380138,91.3328714 C38.8380138,96.1019752 34.9735448,99.9664201 30.2068966,99.9664201 C25.4402483,99.9664201 21.5757793,96.1019752 21.5757793,91.3328714 C21.5757793,86.5637676 25.4402483,82.6973078 30.2068966,82.6973078 L30.2068966,82.6973078 Z"/><path id="Fill-18" fill="#002F47" d="M64.7291503,147.459602 L151.034281,147.459602 L64.7291503,147.459602 Z M64.7291503,164.728714 L151.034281,164.728714 L64.7291503,164.728714 Z M181.241178,173.364278 C181.241178,178.123307 177.38275,181.999841 172.610061,181.999841 L8.63091586,181.999841 C3.85822621,181.999841 -0.000201379309,178.123307 -0.000201379309,173.364278 L-0.000201379309,130.19049 C-0.000201379309,125.415341 3.85822621,121.554926 8.63091586,121.554926 L172.610061,121.554926 C177.38275,121.554926 181.241178,125.415341 181.241178,130.19049 L181.241178,173.364278 Z"/><path id="Stroke-20" stroke="#929031" stroke-linejoin="round" stroke-width="4.028" d="M64.7291503,147.459602 L151.034281,147.459602 L64.7291503,147.459602 Z M64.7291503,164.728714 L151.034281,164.728714 L64.7291503,164.728714 Z M181.241178,173.364278 C181.241178,178.123307 177.38275,181.999841 172.610061,181.999841 L8.63091586,181.999841 C3.85822621,181.999841 -0.000201379309,178.123307 -0.000201379309,173.364278 L-0.000201379309,130.19049 C-0.000201379309,125.415341 3.85822621,121.554926 8.63091586,121.554926 L172.610061,121.554926 C177.38275,121.554926 181.241178,125.415341 181.241178,130.19049 L181.241178,173.364278 L181.241178,173.364278 Z"/><path id="Fill-22" fill="#002F47" d="M30.2068966,143.142223 C34.9735448,143.142223 38.8380138,147.008683 38.8380138,151.777787 C38.8380138,156.54689 34.9735448,160.411335 30.2068966,160.411335 C25.4402483,160.411335 21.5757793,156.54689 21.5757793,151.777787 C21.5757793,147.008683 25.4402483,143.142223 30.2068966,143.142223"/><path id="Stroke-24" stroke="#929031" stroke-linejoin="round" stroke-width="4.028" d="M30.2068966,143.142223 C34.9735448,143.142223 38.8380138,147.008683 38.8380138,151.777787 C38.8380138,156.54689 34.9735448,160.411335 30.2068966,160.411335 C25.4402483,160.411335 21.5757793,156.54689 21.5757793,151.777787 C21.5757793,147.008683 25.4402483,143.142223 30.2068966,143.142223 L30.2068966,143.142223 Z"/></g></g></g></g></g></svg>