<svg xmlns="http://www.w3.org/2000/svg" xmlns:xlink="http://www.w3.org/1999/xlink" viewBox="0 0 275 564"><defs><style>.cls-1,.cls-10{opacity:.2}.cls-19,.cls-2,.cls-20,.cls-21,.cls-22,.cls-23,.cls-24,.cls-3,.cls-31,.cls-32,.cls-35,.cls-4,.cls-5,.cls-7,.cls-8,.cls-9{fill:none}.cls-2{stroke:#b3b3b2}.cls-2,.cls-20,.cls-22,.cls-23,.cls-31,.cls-35,.cls-4,.cls-8{stroke-linecap:round}.cls-19,.cls-2,.cls-20,.cls-21,.cls-22,.cls-23,.cls-24,.cls-25,.cls-3,.cls-31,.cls-32,.cls-35,.cls-4,.cls-7,.cls-8,.cls-9{stroke-miterlimit:10}.cls-2,.cls-3,.cls-35,.cls-4{stroke-width:4.71036px}.cls-23,.cls-24,.cls-25,.cls-3,.cls-4{stroke:#ef9f69}.cls-5,.cls-6{opacity:.3}.cls-7{stroke:#676767}.cls-7,.cls-8,.cls-9{stroke-width:7.71287px}.cls-20,.cls-21,.cls-31,.cls-32,.cls-8,.cls-9{stroke:#1d1e1c}.cls-11{fill:#dd9362}.cls-12{fill:gray}.cls-13{fill:#ef9f69}.cls-14{fill:#736358}.cls-15{fill:#6f491e}.cls-16{fill:#7b5222}.cls-17{fill:#dc9161}.cls-18{fill:#ef9e69}.cls-19{stroke:#ef9f6a}.cls-19,.cls-20,.cls-21{stroke-width:6.0649px}.cls-22{stroke:#2c5871}.cls-22,.cls-23,.cls-24,.cls-25{stroke-width:4.33207px}.cls-25{fill:#ef9f6a}.cls-26{fill:#ffd301}.cls-27{fill:#7191a4}.cls-28{fill:#85a9bb}.cls-29{fill:#2d5971}.cls-30{fill:#5e3f37}.cls-31,.cls-32{stroke-width:6.5945px}.cls-33{fill:#2c5871}.cls-34{fill:#15b0bf}.cls-35{stroke:#d1ecfb}</style><symbol id="Neues_Symbol_6" data-name="Neues Symbol 6" viewBox="0 0 5.843 38.434"><path d="M2.35547,38.43428A2.35561,2.35561,0,0,1,0,36.07881V3.19112a2.35547,2.35547,0,0,1,4.71094,0V36.07881A2.35561,2.35561,0,0,1,2.35547,38.43428Z" class="cls-1"/><line x1="3.487" x2="3.487" y1="2.355" y2="35.243" class="cls-2"/><line x1="3.487" x2="3.487" y1="28.723" y2="35.243" class="cls-3"/><line x1="3.487" x2="3.487" y1="31.723" y2="35.243" class="cls-4"/></symbol><symbol id="karte_angebot_public_people" data-name="karte angebot public people" viewBox="0 0 275 564"><g id="karte_Public" data-name="karte Public"><g id="karte_Public-2" data-name="karte Public"><rect width="275" height="564" class="cls-5"/></g></g><g><g id="mann"><ellipse cx="187.009" cy="422.529" class="cls-6" rx="22.667" ry="3.771"/><g><g><line x1="193.133" x2="182.164" y1="379.183" y2="415.594" class="cls-7"/><g><line x1="183.652" x2="180.947" y1="410.654" y2="419.633" class="cls-8"/><line x1="184.924" x2="182.218" y1="406.434" y2="415.413" class="cls-9"/></g></g><g><line x1="193.133" x2="193.133" y1="379.183" y2="417.21" class="cls-7"/><g><line x1="193.133" x2="193.133" y1="412.051" y2="421.429" class="cls-8"/><line x1="193.133" x2="193.133" y1="407.643" y2="417.021" class="cls-9"/></g></g><g class="cls-10"><polygon points="189.276 405.356 185.857 416.707 184.542 421.053 189.001 382.626 189.276 378.613 189.276 379.183 189.276 405.356"/></g><polygon points="190.368 338.656 195.899 338.656 195.899 331.124 190.368 331.124 190.368 338.656" class="cls-11"/><path d="M205.9797,382.73612h-25.693V350.27339a12.84647,12.84647,0,0,1,12.84648-12.84648h0a12.84648,12.84648,0,0,1,12.84648,12.84648Z" class="cls-12"/><g><path d="M193.13321,334.84415a12.365,12.365,0,0,0,2.77946-2.13756v1.67383a7.76126,7.76126,0,0,1-2.23218,1.63738,10.05383,10.05383,0,0,1-3.313.73647l.04823-1.19309A8.00951,8.00951,0,0,0,193.13321,334.84415Z" class="cls-1"/><g><path d="M197.0226,324.15813a8.04109,8.04109,0,0,1-14.57541,6.79662l-4.17825-8.96029,14.5754-6.79662Z" class="cls-13"/><circle cx="192.041" cy="320.409" r=".791"/><path d="M193.06694,309.48063l-11.68737,5.44991-.95964.44749-4.22559,1.97042a2.63075,2.63075,0,0,0-1.36834,3.45716l3.96506,8.5031a2.63123,2.63123,0,0,0,3.528,1.174l.00771-.0036a8.13411,8.13411,0,0,0,4.79129-7.43827,5.75793,5.75793,0,0,1,1.0403-3.47642,7.20074,7.20074,0,0,1,2.15178-1.78727A6.53643,6.53643,0,0,0,193.069,309.485Z" class="cls-14"/><path d="M188.69529,323.92873a2.038,2.038,0,1,1-3.04357-.63886A2.21426,2.21426,0,0,1,188.69529,323.92873Z" class="cls-13"/></g></g><use width="5.843" height="38.434" transform="translate(189.14302 340.6809) scale(1.21275)" xlink:href="#Neues_Symbol_6"/></g></g><g id="frau"><g><g id="paar3"><g id="frau-2" data-name="frau"><g><g id="frau-3" data-name="frau"><g><path d="M146.5397,305.90756a2.93,2.93,0,1,1-2.9129-3.24538A3.09281,3.09281,0,0,1,146.5397,305.90756Z" class="cls-15"/><path d="M158.6107,305.90756a2.93,2.93,0,1,1-2.91289-3.24538A3.09281,3.09281,0,0,1,158.6107,305.90756Z" class="cls-15"/><path d="M156.8209,314.42555c0,4.46876-3.26945,8.092-7.3021,8.092h-.31762c-4.03268,0-7.30183-3.62326-7.30183-8.092v-3.978c0-4.527,3.31182-8.19774,7.39767-8.19774h.12621c4.085,0,7.39767,3.67075,7.39767,8.19774Z" class="cls-16"/></g><g><rect width="4.307" height="4.307" x="147.167" y="322.223" class="cls-17"/><path d="M149.32074,323.36847a6.23594,6.23594,0,0,1-2.15361-.38822v1.00831a6.16755,6.16755,0,0,0,4.30721,0v-1.00831A6.23655,6.23655,0,0,1,149.32074,323.36847Z" class="cls-1"/><ellipse cx="155.582" cy="316.105" class="cls-18" rx="1.314" ry="1.88"/><ellipse cx="142.669" cy="316.105" class="cls-18" rx="1.314" ry="1.88"/><g><path d="M155.58175,317.30156a6.261,6.261,0,1,1-12.522,0v-7.698h12.522Z" class="cls-18"/><path d="M155.58175,309.60359s-13.52571.24053-12.18692,5.81885c-2.8502-8.21929,3.034-7.97593,5.28667-7.56922A49.96079,49.96079,0,0,1,155.58175,309.60359Z" class="cls-16"/><path d="M155.58175,309.60359s-11.92945.44649-11.63766,4.90915c-1.47612-5.338,2.51819-8.18682,5.38018-7.72573A15.9448,15.9448,0,0,1,155.58175,309.60359Z" class="cls-16"/></g><circle cx="152.785" cy="313.016" r=".616"/><circle cx="146.377" cy="313.016" r=".616"/></g></g><g><g><line x1="146.156" x2="146.156" y1="358.172" y2="388.075" class="cls-19"/><g><line x1="146.156" x2="146.156" y1="384.018" y2="391.392" class="cls-20"/><line x1="146.156" x2="146.156" y1="380.552" y2="387.926" class="cls-21"/></g></g><g><line x1="153.345" x2="153.345" y1="358.172" y2="388.075" class="cls-19"/><g><line x1="153.345" x2="153.345" y1="384.018" y2="391.392" class="cls-20"/><line x1="153.345" x2="153.345" y1="380.552" y2="387.926" class="cls-21"/></g></g><g><path d="M137.576,358.15446V335.83329c0-4.30161,5.85591-7.93565,12.78807-7.93565" class="cls-22"/><g><line x1="137.576" x2="137.576" y1="359.723" y2="355.558" class="cls-23"/><line x1="137.576" x2="137.576" y1="357.638" y2="340.423" class="cls-24"/></g></g><g><path d="M161.98125,358.15484V335.83368c0-4.30162-5.85592-7.93565-12.78808-7.93565" class="cls-22"/><g><line x1="161.981" x2="161.981" y1="360.237" y2="356.072" class="cls-23"/><line x1="161.981" x2="161.981" y1="357.638" y2="340.423" class="cls-25"/></g></g><path d="M159.85205,353.689H139.64873V334.97544a10.10165,10.10165,0,0,1,10.10165-10.10165h0a10.10165,10.10165,0,0,1,10.10165,10.10165Z" class="cls-26"/></g></g><polygon points="164.738 373.124 135.309 373.124 143.409 332.624 156.638 332.624 164.738 373.124" class="cls-27"/></g></g><g><g><path d="M144.25287,325.13125a1.73746,1.73746,0,0,0-1.735,1.735v6.88359a1.735,1.735,0,0,0,3.46993,0v-6.88359A1.73745,1.73745,0,0,0,144.25287,325.13125Z" class="cls-28"/><circle cx="144.253" cy="333.095" r="1.189" class="cls-29"/></g><g><path d="M155.79366,325.13125a1.73745,1.73745,0,0,0-1.735,1.735v6.88359a1.735,1.735,0,0,0,3.46992,0v-6.88359A1.73745,1.73745,0,0,0,155.79366,325.13125Z" class="cls-28"/><circle cx="155.794" cy="333.095" r="1.189" class="cls-29"/></g></g></g><g id="frau-4" data-name="frau"><ellipse cx="149.604" cy="393.21" class="cls-6" rx="17.238" ry="3.339"/></g></g><g id="frau-5" data-name="frau"><path d="M108.1172,321.6315c.47028-2.51315,2.87338-5.35045-2.367-21.30691a18.04036,18.04036,0,0,0-2.12143,1.60195c-2.52647,2.47577-14.4903,5.55683-13.19779,6.8738,0,0-.94128,13.47585-3.71559,15.75409A27.52084,27.52084,0,0,0,108.1172,321.6315Z" class="cls-30"/><g id="nacken"><polygon points="103.718 320.846 108.447 320.846 108.447 314.407 103.718 314.407 103.718 320.846" class="cls-11"/><path d="M106.08264,317.58755a10.57229,10.57229,0,0,0,2.37645-1.82761v1.43112a6.63591,6.63591,0,0,1-1.90852,1.4,8.59578,8.59578,0,0,1-2.8326.62968l.04124-1.02009A6.84815,6.84815,0,0,0,106.08264,317.58755Z" class="cls-1"/></g><ellipse cx="100.846" cy="392.558" class="cls-6" rx="19.38" ry="3.224"/><g><line x1="106.083" x2="96.704" y1="355.497" y2="386.629" class="cls-19"/><g><line x1="97.976" x2="95.663" y1="382.405" y2="390.082" class="cls-31"/><line x1="99.063" x2="96.751" y1="378.796" y2="386.474" class="cls-32"/></g></g><g><line x1="106.083" x2="106.083" y1="355.497" y2="388.011" class="cls-19"/><g><line x1="106.083" x2="106.083" y1="383.599" y2="391.617" class="cls-31"/><line x1="106.083" x2="106.083" y1="379.831" y2="387.849" class="cls-32"/></g></g><g class="cls-10"><polygon points="102.785 377.875 99.861 387.58 98.737 391.296 102.549 358.441 102.785 355.01 102.785 355.497 102.785 377.875"/></g><g><path d="M117.0664,371.86626H95.09889V330.77955a10.98374,10.98374,0,0,1,10.98374-10.98374h0a10.98374,10.98374,0,0,1,10.98375,10.98374Z" class="cls-33"/><rect width="21.968" height="3.567" x="95.099" y="347.294" class="cls-34"/></g><g><path d="M104.95077,360.13471a2.35561,2.35561,0,0,1-2.35547-2.35547v-32.8877a2.35547,2.35547,0,0,1,4.71094,0v32.8877A2.35561,2.35561,0,0,1,104.95077,360.13471Z" class="cls-1"/><line x1="106.083" x2="106.083" y1="324.056" y2="356.943" class="cls-35"/><line x1="106.083" x2="106.083" y1="350.423" y2="356.943" class="cls-3"/><line x1="106.083" x2="106.083" y1="353.423" y2="356.943" class="cls-4"/></g><g id="kopf"><g><path d="M109.40807,308.451a6.87513,6.87513,0,0,1-12.462,5.81111l-3.5724-7.661,12.462-5.81111Z" class="cls-13"/><circle cx="105.149" cy="305.245" r=".676"/></g><path d="M86.7154,321.778a22.088,22.088,0,0,0,4.95412-16.12921L98.209,301.4187l-2.2789,18.72657S95.1374,323.11344,86.7154,321.778Z" class="cls-30"/><g><path d="M105.83567,300.78995s1.38978-.65932,4.21819,2.41223c0,0-2.45357-7.47007-8.21943-5.38934Z" class="cls-30"/><path d="M106.0352,300.12155s-2.15863,6.84892-5.83439,7.35082c0,0,2.94928,11.5608-1.14965,14.77292l-4.23577,1.29177c-6.24219-.17162-4.98731.25357-8.13578-.25411l-1.59907-.27568a41.7195,41.7195,0,0,0,3.818-17.29538c.00675-2.38112,3.01755-10.5089,12.93587-7.899Z" class="cls-30"/><path d="M100.01721,298.69393a8.46551,8.46551,0,0,1,6.46513-2.82384s-3.71559,1.189-3.567,2.89816Z" class="cls-30"/><path d="M102.09794,298.24806c.14862-.22293,1.56055-2.49069,6.09357.13114,0,0-4.90458-.90923-4.97889,0Z" class="cls-30"/></g><path d="M101.88458,310.33229c-.70516.4942-1.90054.003-2.67265-1.09179-.767-1.09686-.82051-2.38836-.11695-2.88231.70444-.49431,1.90112-.00688,2.66761,1.09383C102.5323,308.54649,102.585,309.833,101.88458,310.33229Z" class="cls-13"/></g></g></g></symbol></defs><title>karte angebot public people</title><g id="Ebene_2" data-name="Ebene 2"><g id="Karte_V1" data-name="Karte V1"><use width="275" height="564" xlink:href="#karte_angebot_public_people"/></g></g></svg>